<svg width="97" height="96" viewBox="0 0 97 96" fill="none" xmlns="http://www.w3.org/2000/svg">
<g clip-path="url(#clip0_3540_2089)">
<path d="M76.665 81.1429C76.665 80.8398 76.5446 80.5491 76.3302 80.3347C76.1159 80.1204 75.8252 80 75.5221 80H21.8078C21.5047 80 21.214 80.1204 20.9997 80.3347C20.7854 80.5491 20.665 80.8398 20.665 81.1429C20.665 81.446 20.7854 81.7367 20.9997 81.951C21.214 82.1653 21.5047 82.2857 21.8078 82.2857H75.5221C75.8252 82.2857 76.1159 82.1653 76.3302 81.951C76.5446 81.7367 76.665 81.446 76.665 81.1429Z" fill="#0C7FCF"/>
<path d="M81.2364 38.8569H76.6701L76.453 41.1426H81.2364C81.6909 41.1431 82.1267 41.3239 82.4481 41.6453C82.7695 41.9666 82.9503 42.4024 82.9507 42.8569V70.8569H14.3793V42.8569C14.3797 42.4024 14.5605 41.9666 14.8819 41.6453C15.2033 41.3239 15.639 41.1431 16.0936 41.1426H20.8764L20.6599 38.8569H16.0936C15.0331 38.8581 14.0164 39.28 13.2665 40.0298C12.5166 40.7797 12.0948 41.7964 12.0936 42.8569V73.7141C12.0948 74.7746 12.5166 75.7913 13.2665 76.5412C14.0164 77.291 15.0331 77.7129 16.0936 77.7141H81.2364C82.2969 77.7129 83.3136 77.291 84.0635 76.5412C84.8134 75.7913 85.2352 74.7746 85.2364 73.7141V42.8569C85.2352 41.7964 84.8134 40.7797 84.0635 40.0298C83.3136 39.28 82.2969 38.8581 81.2364 38.8569ZM82.9507 73.7141C82.9503 74.1686 82.7695 74.6044 82.4481 74.9258C82.1267 75.2472 81.6909 75.4279 81.2364 75.4284H16.0936C15.639 75.4279 15.2033 75.2472 14.8819 74.9258C14.5605 74.6044 14.3797 74.1686 14.3793 73.7141V73.1427H82.9507V73.7141Z" fill="#03275A"/>
<path d="M25.8947 63.8928C26.0749 63.9768 26.2739 64.0125 26.4721 63.9963C26.6703 63.98 26.8608 63.9125 27.025 63.8002C36.6055 57.2414 44.689 58.982 47.6952 60.0265L48.2667 60.2385C48.5236 60.3341 48.8063 60.3341 49.0632 60.2385L49.6118 60.0351C52.6421 58.982 60.725 57.2414 70.305 63.8002C70.469 63.9126 70.6595 63.9802 70.8577 63.9964C71.0559 64.0125 71.2549 63.9767 71.435 63.8925C71.6151 63.8082 71.7701 63.6785 71.8847 63.516C71.9993 63.3535 72.0695 63.1639 72.0884 62.966L75.517 26.814C75.5444 26.5239 75.46 26.2342 75.2811 26.0043C75.1021 25.7743 74.8421 25.6214 74.5541 25.5768C73.9621 25.4854 60.1158 23.4334 48.665 29.1362C37.2135 23.4322 23.3678 25.4848 22.7758 25.5768C22.4879 25.6214 22.2278 25.7743 22.0488 26.0043C21.8699 26.2342 21.7855 26.5239 21.813 26.814L25.2415 62.966C25.2603 63.1639 25.3305 63.3535 25.445 63.5161C25.5596 63.6786 25.7146 63.8085 25.8947 63.8928ZM49.8078 31.1242C58.8221 26.6934 69.7284 27.3585 73.1364 27.7071L69.9901 60.8785C61.1112 55.49 53.5118 56.5111 49.8078 57.578V31.1242ZM47.5221 31.1242V57.5768C43.841 56.514 36.2324 55.4825 27.3392 60.8785L24.1935 27.7071C27.601 27.3574 38.5078 26.6934 47.5221 31.1242Z" fill="#03275A"/>
<path d="M29.7976 37.5554C31.0278 37.1668 37.4719 35.4057 43.5216 38.9057C43.7831 39.0455 44.0887 39.0783 44.3739 38.997C44.6591 38.9157 44.9015 38.7267 45.05 38.4699C45.1984 38.2132 45.2412 37.9088 45.1694 37.6211C45.0976 37.3333 44.9167 37.0848 44.665 36.928C37.7867 32.9474 30.4993 34.9371 29.109 35.376C28.8243 35.4707 28.5882 35.6736 28.4518 35.9408C28.3154 36.2081 28.2896 36.5183 28.3799 36.8044C28.4702 37.0906 28.6695 37.3297 28.9346 37.4702C29.1997 37.6107 29.5101 37.6413 29.7976 37.5554ZM44.665 42.6417C38.5261 39.092 32.1404 40.2565 29.6799 40.9222C29.3872 41.0014 29.138 41.1936 28.9871 41.4566C28.8361 41.7195 28.7958 42.0316 28.875 42.3242C28.9542 42.6169 29.1464 42.8661 29.4093 43.017C29.6722 43.168 29.9843 43.2083 30.277 43.1291C31.981 42.668 37.9736 41.4125 43.521 44.6205C43.7834 44.7722 44.0953 44.8135 44.3882 44.7352C44.681 44.6569 44.9307 44.4655 45.0824 44.2031C45.2341 43.9407 45.2754 43.6288 45.1971 43.3359C45.1188 43.0431 44.9274 42.7934 44.665 42.6417ZM44.665 48.356C38.8284 44.9817 32.6387 45.9268 30.2479 46.4903C30.1004 46.5234 29.961 46.5854 29.8377 46.6727C29.7144 46.7601 29.6096 46.871 29.5295 46.9991C29.4493 47.1272 29.3953 47.2699 29.3707 47.419C29.346 47.5681 29.3512 47.7206 29.3859 47.8676C29.4206 48.0147 29.4841 48.1535 29.5727 48.2758C29.6614 48.3982 29.7734 48.5018 29.9024 48.5806C30.0313 48.6593 30.1746 48.7118 30.324 48.7348C30.4733 48.7579 30.6257 48.7511 30.7724 48.7148C32.8981 48.2143 38.3941 47.3697 43.521 50.3348C43.6509 50.4099 43.7944 50.4587 43.9432 50.4784C44.092 50.4981 44.2432 50.4883 44.3882 50.4495C44.5332 50.4107 44.6691 50.3438 44.7882 50.2525C44.9073 50.1612 45.0073 50.0473 45.0824 49.9174C45.1575 49.7875 45.2063 49.644 45.226 49.4952C45.2457 49.3464 45.2359 49.1952 45.1971 49.0502C45.1583 48.9052 45.0914 48.7693 45.0001 48.6502C44.9088 48.5311 44.7949 48.4311 44.665 48.356ZM53.237 39.06C53.4378 39.0599 53.6349 39.0067 53.8084 38.9057C59.857 35.4063 66.3004 37.1668 67.5318 37.5554C67.6757 37.6032 67.8276 37.622 67.9787 37.6106C68.1298 37.5992 68.2772 37.5578 68.4122 37.4889C68.5472 37.42 68.6671 37.3249 68.765 37.2093C68.8629 37.0936 68.9368 36.9595 68.9825 36.815C69.0281 36.6705 69.0445 36.5183 69.0308 36.3674C69.017 36.2164 68.9734 36.0697 68.9024 35.9358C68.8315 35.8019 68.7346 35.6834 68.6174 35.5873C68.5002 35.4912 68.3651 35.4194 68.2198 35.376C66.8296 34.9371 59.5427 32.9474 52.6639 36.928C52.4461 37.054 52.2761 37.2483 52.18 37.4807C52.084 37.7132 52.0673 37.9709 52.1326 38.2138C52.1979 38.4567 52.3416 38.6713 52.5412 38.8243C52.7409 38.9773 52.9855 39.0601 53.237 39.06ZM53.237 44.7743C53.4375 44.7742 53.6344 44.7212 53.8079 44.6205C59.3559 41.4125 65.3473 42.6674 67.0518 43.1291C67.3445 43.2083 67.6566 43.168 67.9195 43.017C68.1825 42.8661 68.3747 42.6169 68.4538 42.3242C68.533 42.0316 68.4927 41.7195 68.3418 41.4566C68.1908 41.1936 67.9416 41.0014 67.649 40.9222C65.1879 40.256 58.8033 39.0914 52.6639 42.6423C52.4461 42.7682 52.2761 42.9625 52.18 43.195C52.084 43.4275 52.0673 43.6852 52.1326 43.9281C52.1979 44.171 52.3416 44.3856 52.5412 44.5386C52.7409 44.6916 52.9855 44.7744 53.237 44.7743ZM66.557 48.7148C66.7039 48.7518 66.8568 48.7592 67.0066 48.7365C67.1565 48.7139 67.3003 48.6617 67.4298 48.5829C67.5592 48.5041 67.6717 48.4004 67.7608 48.2778C67.8498 48.1551 67.9135 48.016 67.9482 47.8685C67.983 47.721 67.988 47.5681 67.9631 47.4186C67.9382 47.2691 67.8838 47.1261 67.8031 46.9979C67.7224 46.8696 67.617 46.7587 67.493 46.6715C67.3691 46.5844 67.229 46.5228 67.081 46.4903C64.6907 45.9268 58.4993 44.9817 52.6639 48.356C52.5339 48.4311 52.4201 48.5311 52.3288 48.6502C52.2375 48.7693 52.1705 48.9052 52.1318 49.0502C52.093 49.1952 52.0832 49.3464 52.1028 49.4952C52.1225 49.644 52.1713 49.7875 52.2464 49.9174C52.3215 50.0473 52.4215 50.1612 52.5406 50.2525C52.6598 50.3438 52.7957 50.4107 52.9407 50.4495C53.0857 50.4883 53.2369 50.4981 53.3857 50.4784C53.5345 50.4587 53.6779 50.4099 53.8079 50.3348C58.9353 47.3703 64.4324 48.2143 66.557 48.7148Z" fill="#0C7FCF"/>
<path d="M1.80784 86.857C2.43902 86.857 2.95069 86.3453 2.95069 85.7141C2.95069 85.083 2.43902 84.5713 1.80784 84.5713C1.17665 84.5713 0.664978 85.083 0.664978 85.7141C0.664978 86.3453 1.17665 86.857 1.80784 86.857Z" fill="#03275A"/>
<path d="M6.95071 84.5713H5.23642C4.93332 84.5713 4.64263 84.6917 4.4283 84.906C4.21397 85.1204 4.09357 85.411 4.09357 85.7141C4.09357 86.0173 4.21397 86.3079 4.4283 86.5223C4.64263 86.7366 4.93332 86.857 5.23642 86.857H6.95071C7.25381 86.857 7.5445 86.7366 7.75883 86.5223C7.97316 86.3079 8.09357 86.0173 8.09357 85.7141C8.09357 85.411 7.97316 85.1204 7.75883 84.906C7.5445 84.6917 7.25381 84.5713 6.95071 84.5713ZM92.0936 84.5713H90.3793C90.0762 84.5713 89.7855 84.6917 89.5712 84.906C89.3568 85.1204 89.2364 85.411 89.2364 85.7141C89.2364 86.0173 89.3568 86.3079 89.5712 86.5223C89.7855 86.7366 90.0762 86.857 90.3793 86.857H92.0936C92.3967 86.857 92.6874 86.7366 92.9017 86.5223C93.116 86.3079 93.2364 86.0173 93.2364 85.7141C93.2364 85.411 93.116 85.1204 92.9017 84.906C92.6874 84.6917 92.3967 84.5713 92.0936 84.5713Z" fill="#03275A"/>
<path d="M95.5221 86.857C96.1533 86.857 96.665 86.3453 96.665 85.7141C96.665 85.083 96.1533 84.5713 95.5221 84.5713C94.8909 84.5713 94.3793 85.083 94.3793 85.7141C94.3793 86.3453 94.8909 86.857 95.5221 86.857Z" fill="#03275A"/>
<path d="M68.1815 89.1431H63.4341C63.1463 89.1654 62.8775 89.2955 62.6814 89.5073C62.4853 89.7192 62.3764 89.9972 62.3764 90.2859C62.3764 90.5746 62.4853 90.8526 62.6814 91.0645C62.8775 91.2764 63.1463 91.4065 63.4341 91.4288H68.1815C68.4693 91.4065 68.7381 91.2764 68.9342 91.0645C69.1303 90.8526 69.2392 90.5746 69.2392 90.2859C69.2392 89.9972 69.1303 89.7192 68.9342 89.5073C68.7381 89.2955 68.4693 89.1654 68.1815 89.1431ZM33.8958 89.1431H29.1484C28.8606 89.1654 28.5918 89.2955 28.3957 89.5073C28.1996 89.7192 28.0907 89.9972 28.0907 90.2859C28.0907 90.5746 28.1996 90.8526 28.3957 91.0645C28.5918 91.2764 28.8606 91.4065 29.1484 91.4288H33.8958C34.1836 91.4065 34.4524 91.2764 34.6485 91.0645C34.8446 90.8526 34.9535 90.5746 34.9535 90.2859C34.9535 89.9972 34.8446 89.7192 34.6485 89.5073C34.4524 89.2955 34.1836 89.1654 33.8958 89.1431ZM60.0935 89.1431H37.2364C36.9333 89.1431 36.6426 89.2635 36.4283 89.4778C36.2139 89.6921 36.0935 89.9828 36.0935 90.2859C36.0935 90.589 36.2139 90.8797 36.4283 91.094C36.6426 91.3084 36.9333 91.4288 37.2364 91.4288H46.345V92.5716H41.8078C41.5047 92.5716 41.214 92.692 40.9997 92.9064C40.7854 93.1207 40.665 93.4114 40.665 93.7145C40.665 94.0176 40.7854 94.3083 40.9997 94.5226C41.214 94.7369 41.5047 94.8574 41.8078 94.8574H56.0935C56.3966 94.8574 56.6873 94.7369 56.9017 94.5226C57.116 94.3083 57.2364 94.0176 57.2364 93.7145C57.2364 93.4114 57.116 93.1207 56.9017 92.9064C56.6873 92.692 56.3966 92.5716 56.0935 92.5716H50.985V91.4288H60.0935C60.3966 91.4288 60.6873 91.3084 60.9017 91.094C61.116 90.8797 61.2364 90.589 61.2364 90.2859C61.2364 89.9828 61.116 89.6921 60.9017 89.4778C60.6873 89.2635 60.3966 89.1431 60.0935 89.1431Z" fill="#0C7FCF"/>
<path d="M86.7913 86.8574H10.5393C10.3767 86.8786 10.2114 86.8649 10.0545 86.8172C9.89767 86.7695 9.75278 86.6889 9.62956 86.5807C9.50633 86.4725 9.40761 86.3393 9.33997 86.1899C9.27234 86.0406 9.23735 85.8785 9.23735 85.7145C9.23735 85.5505 9.27234 85.3885 9.33997 85.2391C9.40761 85.0897 9.50633 84.9565 9.62956 84.8483C9.75278 84.7402 9.89767 84.6595 10.0545 84.6118C10.2114 84.5641 10.3767 84.5504 10.5393 84.5716H86.7907C86.9533 84.5504 87.1185 84.5641 87.2754 84.6118C87.4323 84.6595 87.5772 84.7402 87.7004 84.8483C87.8236 84.9565 87.9223 85.0897 87.99 85.2391C88.0576 85.3885 88.0926 85.5505 88.0926 85.7145C88.0926 85.8785 88.0576 86.0406 87.99 86.1899C87.9223 86.3393 87.8236 86.4725 87.7004 86.5807C87.5772 86.6889 87.4323 86.7695 87.2754 86.8172C87.1185 86.8649 86.9538 86.8786 86.7913 86.8574ZM39.6964 4.57164C40.0354 4.57164 40.3669 4.4711 40.6488 4.28273C40.9307 4.09436 41.1504 3.82663 41.2802 3.51338C41.4099 3.20014 41.4439 2.85545 41.3777 2.52291C41.3116 2.19037 41.1483 1.88492 40.9086 1.64517C40.6688 1.40542 40.3634 1.24215 40.0308 1.17601C39.6983 1.10986 39.3536 1.14381 39.0404 1.27356C38.7271 1.40331 38.4594 1.62303 38.271 1.90495C38.0827 2.18686 37.9821 2.5183 37.9821 2.85735C37.9826 3.31187 38.1633 3.74764 38.4847 4.06904C38.8061 4.39043 39.2419 4.57118 39.6964 4.57164ZM39.6964 2.00021C39.8659 2.00021 40.0316 2.05048 40.1726 2.14466C40.3136 2.23885 40.4234 2.37272 40.4883 2.52934C40.5532 2.68596 40.5701 2.8583 40.5371 3.02457C40.504 3.19084 40.4224 3.34357 40.3025 3.46344C40.1826 3.58332 40.0299 3.66495 39.8636 3.69803C39.6973 3.7311 39.525 3.71412 39.3684 3.64925C39.2118 3.58437 39.0779 3.47451 38.9837 3.33356C38.8895 3.1926 38.8393 3.02688 38.8393 2.85735C38.8394 2.63007 38.9298 2.41214 39.0905 2.25143C39.2512 2.09072 39.4691 2.00036 39.6964 2.00021ZM91.125 39.4288C90.8989 39.4288 90.678 39.4958 90.49 39.6214C90.3021 39.747 90.1556 39.9255 90.0691 40.1343C89.9826 40.3431 89.96 40.5729 90.0041 40.7946C90.0482 41.0163 90.157 41.2199 90.3169 41.3798C90.4767 41.5396 90.6803 41.6484 90.902 41.6925C91.1237 41.7366 91.3535 41.714 91.5623 41.6275C91.7712 41.541 91.9496 41.3945 92.0752 41.2066C92.2008 41.0186 92.2678 40.7977 92.2678 40.5716C92.2675 40.2686 92.147 39.9781 91.9328 39.7639C91.7185 39.5496 91.428 39.4291 91.125 39.4288ZM91.125 41.1431C91.0119 41.1431 90.9015 41.1096 90.8075 41.0468C90.7135 40.984 90.6403 40.8947 90.597 40.7903C90.5538 40.6859 90.5425 40.571 90.5645 40.4602C90.5866 40.3493 90.641 40.2475 90.7209 40.1676C90.8008 40.0877 90.9026 40.0332 91.0135 40.0112C91.1243 39.9891 91.2392 40.0005 91.3437 40.0437C91.4481 40.087 91.5373 40.1602 91.6001 40.2542C91.6629 40.3481 91.6964 40.4586 91.6964 40.5716C91.6962 40.7231 91.636 40.8684 91.5289 40.9755C91.4217 41.0827 91.2765 41.1429 91.125 41.1431ZM56.8393 22.8574C56.6132 22.8574 56.3923 22.9244 56.2043 23.05C56.0164 23.1755 55.8699 23.354 55.7834 23.5629C55.6969 23.7717 55.6743 24.0015 55.7184 24.2232C55.7625 24.4449 55.8713 24.6485 56.0311 24.8083C56.191 24.9682 56.3946 25.077 56.6163 25.1211C56.838 25.1652 57.0678 25.1426 57.2766 25.0561C57.4854 24.9696 57.6639 24.8231 57.7895 24.6351C57.9151 24.4472 57.9821 24.2262 57.9821 24.0002C57.9818 23.6972 57.8613 23.4067 57.647 23.1924C57.4328 22.9782 57.1423 22.8577 56.8393 22.8574ZM56.8393 24.5716C56.7262 24.5716 56.6158 24.5381 56.5218 24.4753C56.4278 24.4125 56.3546 24.3233 56.3113 24.2189C56.2681 24.1145 56.2568 23.9996 56.2788 23.8887C56.3008 23.7779 56.3553 23.6761 56.4352 23.5961C56.5151 23.5162 56.6169 23.4618 56.7278 23.4398C56.8386 23.4177 56.9535 23.429 57.0579 23.4723C57.1623 23.5155 57.2516 23.5888 57.3144 23.6827C57.3772 23.7767 57.4107 23.8872 57.4107 24.0002C57.4105 24.1517 57.3503 24.297 57.2431 24.4041C57.136 24.5112 56.9908 24.5715 56.8393 24.5716ZM91.125 5.7145C90.8989 5.7145 90.678 5.78152 90.49 5.9071C90.3021 6.03268 90.1556 6.21117 90.0691 6.42C89.9826 6.62883 89.96 6.85862 90.0041 7.08031C90.0482 7.30201 90.157 7.50564 90.3169 7.66547C90.4767 7.82531 90.6803 7.93415 90.902 7.97825C91.1237 8.02235 91.3535 7.99972 91.5623 7.91322C91.7712 7.82672 91.9496 7.68023 92.0752 7.49229C92.2008 7.30435 92.2678 7.08339 92.2678 6.85735C92.2675 6.55434 92.147 6.26383 91.9328 6.04957C91.7185 5.8353 91.428 5.7148 91.125 5.7145ZM91.125 7.42878C91.0119 7.42878 90.9015 7.39527 90.8075 7.33248C90.7135 7.26969 90.6403 7.18044 90.597 7.07603C90.5538 6.97161 90.5425 6.85672 90.5645 6.74587C90.5866 6.63503 90.641 6.53321 90.7209 6.45329C90.8008 6.37338 90.9026 6.31895 91.0135 6.2969C91.1243 6.27486 91.2392 6.28617 91.3437 6.32942C91.4481 6.37267 91.5373 6.44591 91.6001 6.53988C91.6629 6.63385 91.6964 6.74434 91.6964 6.85735C91.6962 7.00886 91.636 7.15412 91.5289 7.26125C91.4217 7.36838 91.2765 7.42863 91.125 7.42878ZM10.5535 16.0002C10.5535 15.7742 10.4865 15.5532 10.3609 15.3653C10.2354 15.1773 10.0569 15.0308 9.84803 14.9443C9.6392 14.8578 9.40941 14.8352 9.18772 14.8793C8.96603 14.9234 8.76239 15.0323 8.60256 15.1921C8.44273 15.3519 8.33388 15.5556 8.28978 15.7773C8.24569 15.9989 8.26832 16.2287 8.35482 16.4376C8.44132 16.6464 8.5878 16.8249 8.77574 16.9505C8.96368 17.076 9.18464 17.1431 9.41068 17.1431C9.71369 17.1428 10.0042 17.0223 10.2185 16.808C10.4327 16.5937 10.5532 16.3032 10.5535 16.0002ZM8.83925 16.0002C8.83925 15.8872 8.87277 15.7767 8.93555 15.6827C8.99834 15.5888 9.08759 15.5155 9.192 15.4723C9.29642 15.429 9.41131 15.4177 9.52216 15.4398C9.63301 15.4618 9.73482 15.5162 9.81474 15.5961C9.89466 15.6761 9.94908 15.7779 9.97113 15.8887C9.99318 15.9996 9.98186 16.1145 9.93861 16.2189C9.89536 16.3233 9.82212 16.4125 9.72815 16.4753C9.63418 16.5381 9.5237 16.5716 9.41068 16.5716C9.25917 16.5715 9.11392 16.5112 9.00679 16.4041C8.89966 16.297 8.8394 16.1517 8.83925 16.0002Z" fill="#03275A"/>
<path d="M6.8867 39.435L7.73642 38.3178L7.19985 38.0138L6.65413 39.2653H6.63642L6.08213 38.0224L5.53642 38.3355L6.37699 39.4264V39.4441L5.06213 39.2744V39.8824L6.38556 39.7127V39.7304L5.53642 40.8207L6.04556 41.143L6.62728 39.8824H6.64499L7.18156 41.1338L7.74499 40.8121L6.8867 39.739V39.7213L8.23642 39.8824V39.2744L6.8867 39.4527V39.435ZM30.4256 19.467L29.9364 20.095L30.2301 20.2801L30.565 19.5544H30.5747L30.8838 20.275L31.2084 20.0898L30.7141 19.4715V19.4613L31.4913 19.5544V19.2041L30.7141 19.307V19.2967L31.2033 18.6533L30.8947 18.4784L30.5804 19.199H30.5701L30.2507 18.483L29.9364 18.6635L30.4204 19.2915V19.3018L29.6633 19.2041V19.5544L30.4256 19.4567V19.467ZM89.4107 27.2647V26.6687L88.0867 26.8441V26.8264L88.9198 25.7304L88.3936 25.4321L87.8587 26.6595H87.841L87.2976 25.4407L86.7621 25.7481L87.5867 26.8178V26.8355L86.297 26.6687V27.2647L87.5953 27.0984V27.1161L86.7621 28.1858L87.2621 28.5018L87.8324 27.2647H87.8496L88.3758 28.4927L88.9284 28.1773L88.0867 27.1247V27.107L89.4107 27.2647ZM67.3781 11.1921L68.097 10.2464L67.6427 9.98926L67.1816 11.0481H67.1661L66.6976 9.99669L66.2353 10.2618L66.9467 11.1847V11.1995L65.8347 11.0561V11.5704L66.9541 11.4264V11.4418L66.2353 12.3647L66.6667 12.6373L67.1587 11.5704H67.1736L67.6278 12.6293L68.1044 12.3573L67.3781 11.4493V11.4338L68.5199 11.5704V11.0561L67.3781 11.207V11.1921Z" fill="#0C7FCF"/>
</g>
<defs>
<clipPath id="clip0_3540_2089">
<rect width="96" height="96" fill="white" transform="translate(0.664978)"/>
</clipPath>
</defs>
</svg>
