<svg width="97" height="96" viewBox="0 0 97 96" fill="none" xmlns="http://www.w3.org/2000/svg">
<g clip-path="url(#clip0_3540_2011)">
<path d="M31.5271 29.2974C32.4879 29.2973 33.4165 28.9514 34.1432 28.323C34.8699 27.6945 35.3461 26.8255 35.4848 25.8749C35.6236 24.9242 35.4155 23.9553 34.8986 23.1455C34.3817 22.3356 33.5907 21.7388 32.67 21.4642V14.4368C32.67 14.1337 32.5496 13.843 32.3353 13.6287C32.1209 13.4144 31.8302 13.2939 31.5271 13.2939C31.224 13.2939 30.9333 13.4144 30.719 13.6287C30.5047 13.843 30.3843 14.1337 30.3843 14.4368V21.4642C29.4636 21.7388 28.6725 22.3356 28.1557 23.1455C27.6388 23.9553 27.4307 24.9242 27.5694 25.8749C27.7081 26.8255 28.1844 27.6945 28.9111 28.323C29.6378 28.9514 30.5664 29.2973 31.5271 29.2974ZM31.5271 23.5819C31.8662 23.5819 32.1976 23.6825 32.4796 23.8709C32.7615 24.0592 32.9812 24.327 33.1109 24.6402C33.2407 24.9534 33.2746 25.2981 33.2085 25.6307C33.1423 25.9632 32.9791 26.2687 32.7393 26.5084C32.4996 26.7482 32.1941 26.9114 31.8616 26.9776C31.529 27.0437 31.1844 27.0098 30.8711 26.88C30.5579 26.7503 30.2901 26.5306 30.1018 26.2486C29.9134 25.9667 29.8129 25.6353 29.8129 25.2962C29.8129 24.8416 29.9935 24.4055 30.315 24.084C30.6365 23.7626 31.0725 23.5819 31.5271 23.5819Z" fill="#0C7FCF"/>
<path d="M34.9557 16.7227H62.3843V19.0089H34.9557V16.7227Z" fill="#03275A"/>
<path d="M65.8129 29.2974C66.7736 29.2973 67.7022 28.9514 68.4289 28.323C69.1556 27.6945 69.6318 26.8255 69.7706 25.8749C69.9093 24.9242 69.7012 23.9553 69.1843 23.1455C68.6675 22.3356 67.8764 21.7388 66.9557 21.4642V14.4368C66.9557 14.1337 66.8353 13.843 66.621 13.6287C66.4066 13.4144 66.116 13.2939 65.8129 13.2939C65.5097 13.2939 65.2191 13.4144 65.0047 13.6287C64.7904 13.843 64.67 14.1337 64.67 14.4368V21.4642C63.7493 21.7388 62.9582 22.3356 62.4414 23.1455C61.9245 23.9553 61.7164 24.9242 61.8551 25.8749C61.9939 26.8255 62.4701 27.6945 63.1968 28.323C63.9235 28.9514 64.8521 29.2973 65.8129 29.2974ZM65.8129 23.5819C66.1519 23.5819 66.4833 23.6825 66.7653 23.8709C67.0472 24.0592 67.2669 24.327 67.3966 24.6402C67.5264 24.9534 67.5603 25.2981 67.4942 25.6307C67.428 25.9632 67.2648 26.2687 67.025 26.5084C66.7853 26.7482 66.4798 26.9114 66.1473 26.9776C65.8148 27.0437 65.4701 27.0098 65.1568 26.88C64.8436 26.7503 64.5758 26.5306 64.3875 26.2486C64.1991 25.9667 64.0986 25.6353 64.0986 25.2962C64.0986 24.8416 64.2792 24.4055 64.6007 24.084C64.9222 23.7626 65.3582 23.5819 65.8129 23.5819Z" fill="#0C7FCF"/>
<path d="M1.81286 87.0079C2.44404 87.0079 2.95571 86.4962 2.95571 85.865C2.95571 85.2338 2.44404 84.7222 1.81286 84.7222C1.18167 84.7222 0.669998 85.2338 0.669998 85.865C0.669998 86.4962 1.18167 87.0079 1.81286 87.0079Z" fill="#03275A"/>
<path d="M6.95571 84.7222H5.24143C4.93832 84.7222 4.64763 84.8426 4.43331 85.0569C4.21898 85.2712 4.09857 85.5619 4.09857 85.865C4.09857 86.1681 4.21898 86.4588 4.43331 86.6731C4.64763 86.8875 4.93832 87.0079 5.24143 87.0079H6.95571C7.25882 87.0079 7.54951 86.8875 7.76384 86.6731C7.97816 86.4588 8.09857 86.1681 8.09857 85.865C8.09857 85.5619 7.97816 85.2712 7.76384 85.0569C7.54951 84.8426 7.25882 84.7222 6.95571 84.7222ZM92.0986 84.7222H90.3843C90.0812 84.7222 89.7905 84.8426 89.5762 85.0569C89.3618 85.2712 89.2414 85.5619 89.2414 85.865C89.2414 86.1681 89.3618 86.4588 89.5762 86.6731C89.7905 86.8875 90.0812 87.0079 90.3843 87.0079H92.0986C92.4017 87.0079 92.6924 86.8875 92.9067 86.6731C93.121 86.4588 93.2414 86.1681 93.2414 85.865C93.2414 85.5619 93.121 85.2712 92.9067 85.0569C92.6924 84.8426 92.4017 84.7222 92.0986 84.7222Z" fill="#03275A"/>
<path d="M95.5271 87.0079C96.1583 87.0079 96.67 86.4962 96.67 85.865C96.67 85.2338 96.1583 84.7222 95.5271 84.7222C94.896 84.7222 94.3843 85.2338 94.3843 85.865C94.3843 86.4962 94.896 87.0079 95.5271 87.0079Z" fill="#03275A"/>
<path d="M68.1866 89.2939H63.4391C63.1513 89.3163 62.8825 89.4463 62.6864 89.6582C62.4904 89.8701 62.3814 90.1481 62.3814 90.4368C62.3814 90.7255 62.4904 91.0035 62.6864 91.2154C62.8825 91.4273 63.1513 91.5573 63.4391 91.5797H68.1866C68.4744 91.5573 68.7432 91.4273 68.9393 91.2154C69.1353 91.0035 69.2443 90.7255 69.2443 90.4368C69.2443 90.1481 69.1353 89.8701 68.9393 89.6582C68.7432 89.4463 68.4744 89.3163 68.1866 89.2939ZM33.9009 89.2939H29.1534C28.8656 89.3163 28.5968 89.4463 28.4007 89.6582C28.2047 89.8701 28.0957 90.1481 28.0957 90.4368C28.0957 90.7255 28.2047 91.0035 28.4007 91.2154C28.5968 91.4273 28.8656 91.5573 29.1534 91.5797H33.9009C34.1887 91.5573 34.4575 91.4273 34.6535 91.2154C34.8496 91.0035 34.9585 90.7255 34.9585 90.4368C34.9585 90.1481 34.8496 89.8701 34.6535 89.6582C34.4575 89.4463 34.1887 89.3163 33.9009 89.2939ZM60.0986 89.2939H37.2414C36.9383 89.2939 36.6476 89.4144 36.4333 89.6287C36.219 89.843 36.0986 90.1337 36.0986 90.4368C36.0986 90.7399 36.219 91.0306 36.4333 91.2449C36.6476 91.4592 36.9383 91.5797 37.2414 91.5797H46.35V92.7225H41.8129C41.5098 92.7225 41.2191 92.8429 41.0047 93.0573C40.7904 93.2716 40.67 93.5623 40.67 93.8654C40.67 94.1685 40.7904 94.4592 41.0047 94.6735C41.2191 94.8878 41.5098 95.0082 41.8129 95.0082H56.0986C56.4017 95.0082 56.6924 94.8878 56.9067 94.6735C57.121 94.4592 57.2414 94.1685 57.2414 93.8654C57.2414 93.5623 57.121 93.2716 56.9067 93.0573C56.6924 92.8429 56.4017 92.7225 56.0986 92.7225H50.99V91.5797H60.0986C60.4017 91.5797 60.6924 91.4592 60.9067 91.2449C61.121 91.0306 61.2414 90.7399 61.2414 90.4368C61.2414 90.1337 61.121 89.843 60.9067 89.6287C60.6924 89.4144 60.4017 89.2939 60.0986 89.2939Z" fill="#0C7FCF"/>
<path d="M86.7963 84.7223H54.5283C57.8671 82.5509 63.5454 78.8595 63.5786 78.8383C63.7345 78.7318 63.8621 78.5889 63.9502 78.4219C64.0384 78.2549 64.0845 78.0689 64.0845 77.88C64.0845 77.6912 64.0384 77.5052 63.9502 77.3382C63.8621 77.1712 63.7345 77.0283 63.5786 76.9218C63.5786 76.9218 52.1649 69.5012 52.15 69.4915C51.9767 69.3834 51.7779 69.3232 51.5738 69.3171C51.3697 69.3109 51.1676 69.359 50.9881 69.4564C50.8086 69.5538 50.6582 69.6971 50.5521 69.8716C50.446 70.0461 50.3881 70.2456 50.3843 70.4498V72.7538H38.3843C38.0811 72.7538 37.7903 72.8742 37.576 73.0886C37.3616 73.303 37.2411 73.5937 37.2411 73.8969C37.2411 74.2001 37.3616 74.4908 37.576 74.7052C37.7903 74.9196 38.0811 75.04 38.3843 75.04H51.5271C51.8303 75.04 52.1209 74.9196 52.3353 74.7053C52.5496 74.491 52.67 74.2003 52.67 73.8972V72.556L60.8586 77.88L52.67 83.2035V81.8989C52.67 81.5959 52.5497 81.3053 52.3355 81.091C52.1213 80.8767 51.8307 80.7562 51.5277 80.756L18.3843 80.7372C18.0813 80.7369 17.7908 80.6164 17.5765 80.4021C17.3622 80.1879 17.2417 79.8973 17.2414 79.5943V57.8743H21.8129C22.116 57.8743 22.4067 57.7539 22.621 57.5396C22.8353 57.3253 22.9557 57.0346 22.9557 56.7315C22.9557 56.4284 22.8353 56.1377 22.621 55.9233C22.4067 55.709 22.116 55.5886 21.8129 55.5886H17.2414V53.3029H21.8129C22.116 53.3029 22.4067 53.1825 22.621 52.9682C22.8353 52.7538 22.9557 52.4631 22.9557 52.16C22.9557 51.8569 22.8353 51.5662 22.621 51.3519C22.4067 51.1376 22.116 51.0172 21.8129 51.0172H17.2414V33.8692H80.0986V51.0172H75.5272C75.224 51.0172 74.9332 51.1376 74.7188 51.352C74.5044 51.5664 74.384 51.8571 74.384 52.1603C74.384 52.4635 74.5044 52.7543 74.7188 52.9687C74.9332 53.183 75.224 53.3035 75.5272 53.3035H80.0986V55.5892H75.5272C75.2239 55.5892 74.9331 55.7097 74.7186 55.9241C74.5042 56.1385 74.3837 56.4294 74.3837 56.7326C74.3837 57.0359 74.5042 57.3267 74.7186 57.5411C74.9331 57.7556 75.2239 57.876 75.5272 57.876H80.0986V79.0235C80.0981 79.3264 79.9776 79.6169 79.7633 79.8311C79.5491 80.0453 79.2587 80.1659 78.9557 80.1663H68.0986C67.7953 80.1663 67.5045 80.2868 67.2901 80.5012C67.0756 80.7157 66.9552 81.0065 66.9552 81.3098C66.9552 81.613 67.0756 81.9039 67.2901 82.1183C67.5045 82.3327 67.7953 82.4532 68.0986 82.4532H78.9557C79.8649 82.4521 80.7365 82.0904 81.3793 81.4474C82.0221 80.8044 82.3835 79.9327 82.3843 79.0235V20.1526C82.3835 19.2434 82.0221 18.3717 81.3793 17.7287C80.7365 17.0857 79.8649 16.724 78.9557 16.7229H69.2414V19.0092H78.9557C79.2587 19.0095 79.5493 19.13 79.7635 19.3443C79.9778 19.5585 80.0983 19.849 80.0986 20.152V31.5835H17.2414V20.1526C17.2417 19.8496 17.3622 19.5591 17.5765 19.3448C17.7908 19.1306 18.0813 19.0101 18.3843 19.0098H28.0986V16.7229H18.3843C17.4751 16.724 16.6035 17.0857 15.9607 17.7287C15.3179 18.3717 14.9565 19.2434 14.9557 20.1526V79.5943C14.9568 80.5032 15.3183 81.3746 15.9609 82.0173C16.6035 82.6601 17.4748 83.0217 18.3837 83.0229L50.3843 83.0406V84.7218H10.5437C10.3811 84.7005 10.2159 84.7142 10.059 84.7619C9.90214 84.8096 9.75725 84.8903 9.63403 84.9984C9.5108 85.1066 9.41208 85.2398 9.34444 85.3892C9.27681 85.5386 9.24182 85.7006 9.24182 85.8646C9.24182 86.0286 9.27681 86.1907 9.34444 86.34C9.41208 86.4894 9.5108 86.6226 9.63403 86.7308C9.75725 86.839 9.90214 86.9196 10.059 86.9673C10.2159 87.015 10.3811 87.0287 10.5437 87.0075H86.7957C86.9583 87.0287 87.1236 87.015 87.2804 86.9673C87.4373 86.9196 87.5822 86.839 87.7054 86.7308C87.8286 86.6226 87.9274 86.4894 87.995 86.34C88.0626 86.1907 88.0976 86.0286 88.0976 85.8646C88.0976 85.7006 88.0626 85.5386 87.995 85.3892C87.9274 85.2398 87.8286 85.1066 87.7054 84.9984C87.5822 84.8903 87.4373 84.8096 87.2804 84.7619C87.1236 84.7142 86.9583 84.7005 86.7957 84.7218L86.7963 84.7223ZM41.3597 14.0966C41.6988 14.0966 42.0302 13.9961 42.3121 13.8077C42.594 13.6193 42.8138 13.3516 42.9435 13.0384C43.0733 12.7251 43.1072 12.3804 43.0411 12.0479C42.9749 11.7153 42.8117 11.4099 42.5719 11.1701C42.3322 10.9304 42.0267 10.7671 41.6942 10.701C41.3616 10.6348 41.0169 10.6688 40.7037 10.7985C40.3904 10.9283 40.1227 11.148 39.9343 11.4299C39.746 11.7118 39.6454 12.0433 39.6454 12.3823C39.6459 12.8368 39.8266 13.2726 40.148 13.594C40.4694 13.9154 40.9052 14.0962 41.3597 14.0966ZM41.3597 11.5252C41.5292 11.5252 41.695 11.5755 41.8359 11.6696C41.9769 11.7638 42.0867 11.8977 42.1516 12.0543C42.2165 12.2109 42.2335 12.3833 42.2004 12.5495C42.1673 12.7158 42.0857 12.8685 41.9658 12.9884C41.8459 13.1083 41.6932 13.1899 41.5269 13.223C41.3607 13.2561 41.1883 13.2391 41.0317 13.1742C40.8751 13.1093 40.7412 12.9995 40.647 12.8585C40.5528 12.7176 40.5026 12.5519 40.5026 12.3823C40.5027 12.155 40.5931 11.9371 40.7538 11.7764C40.9145 11.6157 41.1324 11.5253 41.3597 11.5252ZM86.3283 33.2395C86.1023 33.2395 85.8813 33.3065 85.6934 33.4321C85.5054 33.5577 85.3589 33.7361 85.2724 33.945C85.1859 34.1538 85.1633 34.3836 85.2074 34.6053C85.2515 34.827 85.3604 35.0306 85.5202 35.1904C85.68 35.3503 85.8837 35.4591 86.1053 35.5032C86.327 35.5473 86.5568 35.5247 86.7657 35.4382C86.9745 35.3517 87.153 35.2052 87.2785 35.0173C87.4041 34.8293 87.4712 34.6084 87.4712 34.3823C87.4708 34.0793 87.3503 33.7888 87.1361 33.5745C86.9218 33.3603 86.6313 33.2398 86.3283 33.2395ZM86.3283 34.9538C86.2153 34.9538 86.1048 34.9202 86.0108 34.8575C85.9169 34.7947 85.8436 34.7054 85.8004 34.601C85.7571 34.4966 85.7458 34.3817 85.7679 34.2708C85.7899 34.16 85.8443 34.0582 85.9242 33.9783C86.0042 33.8983 86.106 33.8439 86.2168 33.8219C86.3277 33.7998 86.4426 33.8111 86.547 33.8544C86.6514 33.8976 86.7406 33.9709 86.8034 34.0649C86.8662 34.1588 86.8997 34.2693 86.8997 34.3823C86.8996 34.5338 86.8393 34.6791 86.7322 34.7862C86.6251 34.8934 86.4798 34.9536 86.3283 34.9538ZM72.614 10.3823C72.388 10.3823 72.167 10.4494 71.9791 10.5749C71.7911 10.7005 71.6446 10.879 71.5581 11.0878C71.4716 11.2967 71.449 11.5264 71.4931 11.7481C71.5372 11.9698 71.6461 12.1735 71.8059 12.3333C71.9657 12.4931 72.1694 12.602 72.391 12.6461C72.6127 12.6902 72.8425 12.6675 73.0514 12.581C73.2602 12.4945 73.4387 12.3481 73.5643 12.1601C73.6898 11.9722 73.7569 11.7512 73.7569 11.5252C73.7566 11.2222 73.6361 10.9317 73.4218 10.7174C73.2075 10.5031 72.917 10.3826 72.614 10.3823ZM72.614 12.0966C72.501 12.0966 72.3905 12.0631 72.2965 12.0003C72.2026 11.9375 72.1293 11.8483 72.0861 11.7439C72.0428 11.6394 72.0315 11.5245 72.0536 11.4137C72.0756 11.3029 72.13 11.201 72.2099 11.1211C72.2899 11.0412 72.3917 10.9868 72.5025 10.9647C72.6134 10.9427 72.7283 10.954 72.8327 10.9973C72.9371 11.0405 73.0263 11.1137 73.0891 11.2077C73.1519 11.3017 73.1854 11.4122 73.1854 11.5252C73.1853 11.6767 73.125 11.8219 73.0179 11.9291C72.9108 12.0362 72.7655 12.0965 72.614 12.0966ZM92.7569 18.668C92.5308 18.668 92.3099 18.7351 92.1219 18.8606C91.934 18.9862 91.7875 19.1647 91.701 19.3735C91.6145 19.5824 91.5919 19.8122 91.636 20.0339C91.6801 20.2556 91.7889 20.4592 91.9488 20.619C92.1086 20.7789 92.3122 20.8877 92.5339 20.9318C92.7556 20.9759 92.9854 20.9533 93.1942 20.8668C93.4031 20.7803 93.5815 20.6338 93.7071 20.4458C93.8327 20.2579 93.8997 20.0369 93.8997 19.8109C93.8994 19.5079 93.7789 19.2174 93.5647 19.0031C93.3504 18.7888 93.0599 18.6683 92.7569 18.668ZM92.7569 20.3823C92.6438 20.3823 92.5334 20.3488 92.4394 20.286C92.3454 20.2232 92.2722 20.134 92.2289 20.0296C92.1857 19.9252 92.1744 19.8103 92.1964 19.6994C92.2185 19.5886 92.2729 19.4868 92.3528 19.4068C92.4327 19.3269 92.5345 19.2725 92.6454 19.2504C92.7562 19.2284 92.8711 19.2397 92.9755 19.283C93.08 19.3262 93.1692 19.3995 93.232 19.4934C93.2948 19.5874 93.3283 19.6979 93.3283 19.8109C93.3281 19.9624 93.2679 20.1077 93.1608 20.2148C93.0536 20.3219 92.9084 20.3822 92.7569 20.3823ZM19.7569 10.5252C19.7569 10.2991 19.6898 10.0782 19.5643 9.89024C19.4387 9.7023 19.2602 9.55582 19.0514 9.46932C18.8425 9.38282 18.6127 9.36019 18.391 9.40428C18.1694 9.44838 17.9657 9.55723 17.8059 9.71706C17.6461 9.87689 17.5372 10.0805 17.4931 10.3022C17.449 10.5239 17.4716 10.7537 17.5581 10.9625C17.6446 11.1714 17.7911 11.3499 17.9791 11.4754C18.167 11.601 18.388 11.668 18.614 11.668C18.917 11.6677 19.2075 11.5472 19.4218 11.333C19.6361 11.1187 19.7566 10.8282 19.7569 10.5252ZM18.0426 10.5252C18.0426 10.4122 18.0761 10.3017 18.1389 10.2077C18.2017 10.1137 18.2909 10.0405 18.3953 9.99725C18.4997 9.954 18.6146 9.94268 18.7255 9.96473C18.8363 9.98678 18.9382 10.0412 19.0181 10.1211C19.098 10.201 19.1524 10.3029 19.1745 10.4137C19.1965 10.5245 19.1852 10.6394 19.1419 10.7439C19.0987 10.8483 19.0254 10.9375 18.9315 11.0003C18.8375 11.0631 18.727 11.0966 18.614 11.0966C18.4625 11.0965 18.3172 11.0362 18.2101 10.9291C18.103 10.8219 18.0427 10.6767 18.0426 10.5252Z" fill="#03275A"/>
<path d="M5.26428 23.9602L6.11399 22.8425L5.57742 22.539L5.03228 23.7899H5.01399L4.45971 22.5476L3.91399 22.8608L4.75456 23.9516V23.9693L3.44028 23.799V24.407L4.76371 24.2373V24.2556L3.91399 25.3459L4.42371 25.6682L5.00542 24.407H5.02256L5.55913 25.659L6.12256 25.3373L5.26428 24.2642V24.2465L6.61399 24.407V23.799L5.26428 23.9779V23.9602ZM13.7546 1.98076L13.2648 2.60876L13.5586 2.79447L13.8934 2.06819H13.9037L14.2123 2.78933L14.5368 2.60362L14.0426 1.9859V1.97562L14.8203 2.06819V1.7179L14.0426 1.82133V1.81104L14.5317 1.16704L14.2231 0.992188L13.9088 1.71276H13.8986L13.5797 0.99733L13.2648 1.17733L13.7494 1.8059V1.81619L12.9923 1.7179V2.06819L13.7546 1.97047V1.98076ZM83.938 3.96876V3.37219L82.614 3.54762V3.53047L83.4477 2.4339L82.9214 2.13619L82.3866 3.36362H82.3683L81.8254 2.14476L81.2894 2.45162L82.1146 3.5219V3.53904L80.8248 3.37219V3.96876L82.1231 3.80247V3.81962L81.2894 4.88933L81.7894 5.20533L82.3597 3.96876H82.3768L82.9031 5.19676L83.4563 4.88076L82.614 3.82819V3.81104L83.938 3.96876ZM56.086 2.52933L56.8626 1.63047L56.4254 1.34533L55.8991 2.37333L55.8837 2.37219L55.4814 1.2939L55.0037 1.52933L55.6563 2.49504L55.6551 2.5099L54.554 2.29733L54.522 2.81047L55.6488 2.73676L55.6477 2.75219L54.8728 3.62819L55.286 3.92704L55.8437 2.89276L55.8586 2.8939L56.2454 3.97904L56.7386 3.73733L56.07 2.7859L56.0711 2.77047L57.2026 2.9779L57.2346 2.46419L56.0854 2.54419L56.086 2.52933Z" fill="#0C7FCF"/>
</g>
<defs>
<clipPath id="clip0_3540_2011">
<rect width="96" height="96" fill="white" transform="translate(0.669998)"/>
</clipPath>
</defs>
</svg>
