<svg width="97" height="96" viewBox="0 0 97 96" fill="none" xmlns="http://www.w3.org/2000/svg">
<g clip-path="url(#clip0_3540_2043)">
<path d="M24.3299 41.8569H27.7585C28.3647 41.8569 28.9461 41.6161 29.3747 41.1875C29.8034 40.7588 30.0442 40.1774 30.0442 39.5712V36.1426C30.0442 35.5364 29.8034 34.9551 29.3747 34.5264C28.9461 34.0977 28.3647 33.8569 27.7585 33.8569H24.3299C23.7237 33.8569 23.1423 34.0977 22.7137 34.5264C22.285 34.9551 22.0442 35.5364 22.0442 36.1426V39.5712C22.0442 40.1774 22.285 40.7588 22.7137 41.1875C23.1423 41.6161 23.7237 41.8569 24.3299 41.8569ZM24.3299 36.1426H27.7585V39.5712H24.3299V36.1426Z" fill="#0C7FCF"/>
<path d="M34.6157 33.8569C34.0095 33.8569 33.4281 34.0977 32.9994 34.5264C32.5708 34.9551 32.33 35.5364 32.33 36.1426V39.5712C32.33 40.1774 32.5708 40.7588 32.9994 41.1875C33.4281 41.6161 34.0095 41.8569 34.6157 41.8569H38.0442C38.6505 41.8569 39.2318 41.6161 39.6605 41.1875C40.0891 40.7588 40.33 40.1774 40.33 39.5712V36.1426C40.33 35.5364 40.0891 34.9551 39.6605 34.5264C39.2318 34.0977 38.6505 33.8569 38.0442 33.8569H34.6157ZM38.0442 39.5712H34.6157V36.1426H38.0442V39.5712Z" fill="#03275A"/>
<path d="M48.33 33.8569H44.9014C44.2952 33.8569 43.7138 34.0977 43.2852 34.5264C42.8565 34.9551 42.6157 35.5364 42.6157 36.1426V39.5712C42.6157 40.1774 42.8565 40.7588 43.2852 41.1875C43.7138 41.6161 44.2952 41.8569 44.9014 41.8569H48.33C48.9362 41.8569 49.5176 41.6161 49.9463 41.1875C50.3749 40.7588 50.6157 40.1774 50.6157 39.5712V36.1426C50.6157 35.5364 50.3749 34.9551 49.9463 34.5264C49.5176 34.0977 48.9362 33.8569 48.33 33.8569ZM48.33 39.5712H44.9014V36.1426H48.33V39.5712Z" fill="#0C7FCF"/>
<path d="M52.9013 36.1429V39.5715C52.9013 40.1777 53.1421 40.7591 53.5708 41.1877C53.9995 41.6164 54.5808 41.8572 55.187 41.8572H58.6156C59.2218 41.8572 59.8032 41.6164 60.2319 41.1877C60.6605 40.7591 60.9013 40.1777 60.9013 39.5715V36.1429C60.9013 35.5367 60.6605 34.9553 60.2319 34.5267C59.8032 34.098 59.2218 33.8572 58.6156 33.8572H55.187C54.5808 33.8572 53.9995 34.098 53.5708 34.5267C53.1421 34.9553 52.9013 35.5367 52.9013 36.1429ZM55.187 36.1429H58.6156V39.5715H55.187V36.1429ZM23.187 27.0001H53.4728C53.7759 27.0001 54.0666 26.8797 54.2809 26.6653C54.4952 26.451 54.6156 26.1603 54.6156 25.8572C54.6156 25.5541 54.4952 25.2634 54.2809 25.0491C54.0666 24.8348 53.7759 24.7144 53.4728 24.7144H23.187C22.8839 24.7144 22.5933 24.8348 22.3789 25.0491C22.1646 25.2634 22.0442 25.5541 22.0442 25.8572C22.0442 26.1603 22.1646 26.451 22.3789 26.6653C22.5933 26.8797 22.8839 27.0001 23.187 27.0001ZM23.187 31.5715H50.0442C50.3473 31.5715 50.638 31.4511 50.8523 31.2368C51.0666 31.0224 51.187 30.7317 51.187 30.4286C51.187 30.1255 51.0666 29.8348 50.8523 29.6205C50.638 29.4062 50.3473 29.2858 50.0442 29.2858H23.187C22.8839 29.2858 22.5933 29.4062 22.3789 29.6205C22.1646 29.8348 22.0442 30.1255 22.0442 30.4286C22.0442 30.7317 22.1646 31.0224 22.3789 31.2368C22.5933 31.4511 22.8839 31.5715 23.187 31.5715ZM24.3299 61.2858H27.7585C28.3647 61.2858 28.9461 61.045 29.3747 60.6163C29.8034 60.1877 30.0442 59.6063 30.0442 59.0001V55.5715C30.0442 54.9653 29.8034 54.3839 29.3747 53.9553C28.9461 53.5266 28.3647 53.2858 27.7585 53.2858H24.3299C23.7237 53.2858 23.1423 53.5266 22.7137 53.9553C22.285 54.3839 22.0442 54.9653 22.0442 55.5715V59.0001C22.0442 59.6063 22.285 60.1877 22.7137 60.6163C23.1423 61.045 23.7237 61.2858 24.3299 61.2858ZM24.3299 55.5715H27.7585V59.0001H24.3299V55.5715Z" fill="#03275A"/>
<path d="M38.0442 53.2856H34.6157C34.0095 53.2856 33.4281 53.5265 32.9994 53.9551C32.5708 54.3838 32.33 54.9651 32.33 55.5714V58.9999C32.33 59.6061 32.5708 60.1875 32.9994 60.6162C33.4281 61.0448 34.0095 61.2856 34.6157 61.2856H38.0442C38.6505 61.2856 39.2318 61.0448 39.6605 60.6162C40.0891 60.1875 40.33 59.6061 40.33 58.9999V55.5714C40.33 54.9651 40.0891 54.3838 39.6605 53.9551C39.2318 53.5265 38.6505 53.2856 38.0442 53.2856ZM38.0442 58.9999H34.6157V55.5714H38.0442V58.9999Z" fill="#0C7FCF"/>
<path d="M48.33 53.2856H44.9014C44.2952 53.2856 43.7138 53.5265 43.2852 53.9551C42.8565 54.3838 42.6157 54.9651 42.6157 55.5714V58.9999C42.6157 59.6061 42.8565 60.1875 43.2852 60.6162C43.7138 61.0448 44.2952 61.2856 44.9014 61.2856H48.33C48.9362 61.2856 49.5176 61.0448 49.9463 60.6162C50.3749 60.1875 50.6157 59.6061 50.6157 58.9999V55.5714C50.6157 54.9651 50.3749 54.3838 49.9463 53.9551C49.5176 53.5265 48.9362 53.2856 48.33 53.2856ZM48.33 58.9999H44.9014V55.5714H48.33V58.9999Z" fill="#03275A"/>
<path d="M58.6157 53.2856H55.1871C54.5809 53.2856 53.9995 53.5265 53.5708 53.9551C53.1422 54.3838 52.9014 54.9651 52.9014 55.5714V58.9999C52.9014 59.6061 53.1422 60.1875 53.5708 60.6162C53.9995 61.0448 54.5809 61.2856 55.1871 61.2856H58.6157C59.2219 61.2856 59.8032 61.0448 60.2319 60.6162C60.6606 60.1875 60.9014 59.6061 60.9014 58.9999V55.5714C60.9014 54.9651 60.6606 54.3838 60.2319 53.9551C59.8032 53.5265 59.2219 53.2856 58.6157 53.2856ZM58.6157 58.9999H55.1871V55.5714H58.6157V58.9999Z" fill="#0C7FCF"/>
<path d="M23.187 46.4288H53.4728C53.7759 46.4288 54.0666 46.3084 54.2809 46.094C54.4952 45.8797 54.6156 45.589 54.6156 45.2859C54.6156 44.9828 54.4952 44.6921 54.2809 44.4778C54.0666 44.2635 53.7759 44.1431 53.4728 44.1431H23.187C22.8839 44.1431 22.5933 44.2635 22.3789 44.4778C22.1646 44.6921 22.0442 44.9828 22.0442 45.2859C22.0442 45.589 22.1646 45.8797 22.3789 46.094C22.5933 46.3084 22.8839 46.4288 23.187 46.4288ZM23.187 51.0002H50.0442C50.3473 51.0002 50.638 50.8798 50.8523 50.6655C51.0666 50.4511 51.187 50.1605 51.187 49.8574C51.187 49.5542 51.0666 49.2636 50.8523 49.0492C50.638 48.8349 50.3473 48.7145 50.0442 48.7145H23.187C22.8839 48.7145 22.5933 48.8349 22.3789 49.0492C22.1646 49.2636 22.0442 49.5542 22.0442 49.8574C22.0442 50.1605 22.1646 50.4511 22.3789 50.6655C22.5933 50.8798 22.8839 51.0002 23.187 51.0002Z" fill="#03275A"/>
<path d="M26.9614 81.7378C27.2326 81.8733 27.5466 81.8956 27.8342 81.7997C28.1218 81.7038 28.3595 81.4976 28.4952 81.2264L30.1792 77.8578H36.1952L37.8791 81.2264C38.0148 81.4975 38.2526 81.7037 38.5402 81.7995C38.6826 81.8469 38.833 81.8658 38.9827 81.8552C39.1325 81.8445 39.2786 81.8044 39.4129 81.7373C39.5471 81.6701 39.6668 81.5772 39.7651 81.4637C39.8635 81.3503 39.9385 81.2186 39.9859 81.0762C40.0334 80.9338 40.0523 80.7834 40.0416 80.6337C40.0309 80.484 39.9909 80.3378 39.9237 80.2036L34.2094 68.775C34.1145 68.5851 33.9686 68.4254 33.7881 68.3138C33.6075 68.2022 33.3994 68.1431 33.1872 68.1431C32.9749 68.1431 32.7668 68.2022 32.5862 68.3138C32.4057 68.4254 32.2598 68.5851 32.1649 68.775L26.4506 80.2036C26.3834 80.3378 26.3433 80.484 26.3326 80.6337C26.3219 80.7834 26.3408 80.9338 26.3883 81.0762C26.4357 81.2187 26.5108 81.3504 26.6091 81.4638C26.7074 81.5772 26.8272 81.6707 26.9614 81.7378ZM33.1872 71.8413L35.0523 75.5716H31.322L33.1872 71.8413ZM42.6157 76.1436H47.1871V80.715C47.1871 81.0181 47.3076 81.3088 47.5219 81.5231C47.7362 81.7374 48.0269 81.8578 48.33 81.8578C48.6331 81.8578 48.9238 81.7374 49.1381 81.5231C49.3525 81.3088 49.4729 81.0181 49.4729 80.715V76.1436H54.0443C54.3474 76.1436 54.6381 76.0232 54.8524 75.8088C55.0667 75.5945 55.1871 75.3038 55.1871 75.0007C55.1871 74.6976 55.0667 74.4069 54.8524 74.1926C54.6381 73.9783 54.3474 73.8578 54.0443 73.8578H49.4729V69.2864C49.4729 68.9833 49.3525 68.6926 49.1381 68.4783C48.9238 68.264 48.6331 68.1436 48.33 68.1436C48.0269 68.1436 47.7362 68.264 47.5219 68.4783C47.3076 68.6926 47.1871 68.9833 47.1871 69.2864V73.8578H42.6157C42.3126 73.8578 42.0219 73.9783 41.8076 74.1926C41.5933 74.4069 41.4729 74.6976 41.4729 75.0007C41.4729 75.3038 41.5933 75.5945 41.8076 75.8088C42.0219 76.0232 42.3126 76.1436 42.6157 76.1436Z" fill="#0C7FCF"/>
<path d="M71.1871 4.42857C71.5262 4.42857 71.8576 4.32803 72.1395 4.13966C72.4214 3.95129 72.6412 3.68356 72.7709 3.37032C72.9007 3.05707 72.9346 2.71238 72.8685 2.37985C72.8023 2.04731 72.639 1.74185 72.3993 1.5021C72.1595 1.26236 71.8541 1.09909 71.5216 1.03294C71.189 0.966794 70.8443 1.00074 70.5311 1.13049C70.2178 1.26024 69.9501 1.47997 69.7617 1.76188C69.5734 2.04379 69.4728 2.37523 69.4728 2.71429C69.4733 3.1688 69.654 3.60458 69.9754 3.92597C70.2968 4.24736 70.7326 4.42812 71.1871 4.42857ZM71.1871 1.85714C71.3566 1.85714 71.5224 1.90741 71.6633 2.0016C71.8043 2.09578 71.9141 2.22965 71.979 2.38627C72.0439 2.54289 72.0609 2.71524 72.0278 2.88151C71.9947 3.04778 71.9131 3.2005 71.7932 3.32038C71.6733 3.44025 71.5206 3.52189 71.3543 3.55496C71.1881 3.58803 71.0157 3.57106 70.8591 3.50618C70.7025 3.44131 70.5686 3.33145 70.4744 3.19049C70.3802 3.04953 70.33 2.88381 70.33 2.71429C70.3301 2.487 70.4205 2.26907 70.5812 2.10836C70.7419 1.94765 70.9598 1.8573 71.1871 1.85714ZM89.4728 16.1429C89.2468 16.1429 89.0258 16.2099 88.8379 16.3355C88.6499 16.461 88.5035 16.6395 88.417 16.8484C88.3305 17.0572 88.3078 17.287 88.3519 17.5087C88.396 17.7304 88.5049 17.934 88.6647 18.0938C88.8245 18.2537 89.0282 18.3625 89.2499 18.4066C89.4716 18.4507 89.7013 18.4281 89.9102 18.3416C90.119 18.2551 90.2975 18.1086 90.4231 17.9207C90.5487 17.7327 90.6157 17.5118 90.6157 17.2857C90.6154 16.9827 90.4949 16.6922 90.2806 16.4779C90.0664 16.2637 89.7758 16.1432 89.4728 16.1429ZM89.4728 17.8571C89.3598 17.8571 89.2493 17.8236 89.1554 17.7608C89.0614 17.6981 88.9882 17.6088 88.9449 17.5044C88.9016 17.4 88.8903 17.2851 88.9124 17.1742C88.9344 17.0634 88.9888 16.9616 89.0688 16.8817C89.1487 16.8017 89.2505 16.7473 89.3614 16.7253C89.4722 16.7032 89.5871 16.7145 89.6915 16.7578C89.7959 16.801 89.8852 16.8743 89.948 16.9682C90.0107 17.0622 90.0443 17.1727 90.0443 17.2857C90.0441 17.4372 89.9839 17.5825 89.8767 17.6896C89.7696 17.7967 89.6243 17.857 89.4728 17.8571ZM38.0443 1C37.8182 1 37.5973 1.06703 37.4093 1.19261C37.2214 1.31819 37.0749 1.49668 36.9884 1.70551C36.9019 1.91434 36.8793 2.14413 36.9234 2.36582C36.9675 2.58751 37.0763 2.79115 37.2361 2.95098C37.396 3.11081 37.5996 3.21966 37.8213 3.26376C38.043 3.30785 38.2728 3.28522 38.4816 3.19872C38.6904 3.11222 38.8689 2.96574 38.9945 2.7778C39.1201 2.58985 39.1871 2.36889 39.1871 2.14286C39.1868 1.83985 39.0663 1.54933 38.852 1.33507C38.6378 1.12081 38.3473 1.0003 38.0443 1ZM38.0443 2.71429C37.9312 2.71429 37.8208 2.68077 37.7268 2.61798C37.6328 2.55519 37.5596 2.46595 37.5163 2.36153C37.4731 2.25712 37.4618 2.14222 37.4838 2.03138C37.5059 1.92053 37.5603 1.81871 37.6402 1.7388C37.7201 1.65888 37.8219 1.60446 37.9328 1.58241C38.0436 1.56036 38.1585 1.57168 38.2629 1.61493C38.3673 1.65818 38.4566 1.73142 38.5194 1.82539C38.5822 1.91936 38.6157 2.02984 38.6157 2.14286C38.6155 2.29436 38.5553 2.43962 38.4482 2.54675C38.341 2.65388 38.1958 2.71414 38.0443 2.71429ZM88.9014 33.8571C88.6754 33.8571 88.4544 33.9242 88.2665 34.0498C88.0785 34.1753 87.932 34.3538 87.8455 34.5626C87.759 34.7715 87.7364 35.0013 87.7805 35.223C87.8246 35.4447 87.9334 35.6483 88.0933 35.8081C88.2531 35.968 88.4567 36.0768 88.6784 36.1209C88.9001 36.165 89.1299 36.1424 89.3388 36.0559C89.5476 35.9694 89.7261 35.8229 89.8516 35.6349C89.9772 35.447 90.0443 35.226 90.0443 35C90.044 34.697 89.9235 34.4065 89.7092 34.1922C89.4949 33.978 89.2044 33.8574 88.9014 33.8571ZM88.9014 35.5714C88.7884 35.5714 88.6779 35.5379 88.5839 35.4751C88.49 35.4123 88.4167 35.3231 88.3735 35.2187C88.3302 35.1143 88.3189 34.9994 88.341 34.8885C88.363 34.7777 88.4174 34.6759 88.4973 34.5959C88.5773 34.516 88.6791 34.4616 88.7899 34.4396C88.9008 34.4175 89.0157 34.4288 89.1201 34.4721C89.2245 34.5153 89.3137 34.5886 89.3765 34.6825C89.4393 34.7765 89.4728 34.887 89.4728 35C89.4727 35.1515 89.4124 35.2968 89.3053 35.4039C89.1982 35.511 89.0529 35.5713 88.9014 35.5714ZM22.0443 9.28572C22.0443 9.05968 21.9772 8.83872 21.8517 8.65078C21.7261 8.46284 21.5476 8.31635 21.3388 8.22985C21.1299 8.14335 20.9001 8.12072 20.6784 8.16482C20.4567 8.20891 20.2531 8.31776 20.0933 8.47759C19.9334 8.63742 19.8246 8.84106 19.7805 9.06275C19.7364 9.28445 19.759 9.51424 19.8455 9.72307C19.932 9.9319 20.0785 10.1104 20.2665 10.236C20.4544 10.3615 20.6754 10.4286 20.9014 10.4286C21.2044 10.4283 21.4949 10.3078 21.7092 10.0935C21.9235 9.87924 22.044 9.58873 22.0443 9.28572ZM20.33 9.28572C20.33 9.1727 20.3635 9.06222 20.4263 8.96825C20.4891 8.87428 20.5783 8.80103 20.6827 8.75778C20.7871 8.71453 20.902 8.70322 21.0129 8.72527C21.1237 8.74731 21.2255 8.80174 21.3055 8.88165C21.3854 8.96157 21.4398 9.06339 21.4619 9.17423C21.4839 9.28508 21.4726 9.39998 21.4293 9.50439C21.3861 9.60881 21.3128 9.69805 21.2189 9.76084C21.1249 9.82363 21.0144 9.85714 20.9014 9.85714C20.7499 9.85699 20.6046 9.79674 20.4975 9.68961C20.3904 9.58248 20.3301 9.43722 20.33 9.28572Z" fill="#03275A"/>
<path d="M3.99562 23.4271L4.84533 22.31L4.30876 22.006L3.76362 23.2574H3.74533L3.19162 22.0146L2.64533 22.3277L3.48648 23.4186V23.4363L2.17162 23.2666V23.8746L3.49505 23.7049V23.7226L2.64533 24.8129L3.15505 25.1351L3.73676 23.8746H3.7539L4.29048 25.126L4.8539 24.8043L3.99562 23.7311V23.7134L5.34533 23.8746V23.2666L3.99562 23.4454V23.4271ZM2.46362 2.80086L1.97448 3.42886L2.26819 3.61457L2.60305 2.88829H2.61333L2.9219 3.60943L3.24648 3.42371L2.75219 2.806V2.79571L3.52933 2.88829V2.53857L2.75219 2.64143V2.63114L3.24133 1.98771L2.93276 1.81229L2.61848 2.53286H2.60819L2.28933 1.81743L1.97448 1.99743L2.45905 2.626V2.63629L1.7019 2.53857V2.88829L2.46362 2.79057V2.80086ZM95.2425 3.58257V2.98657L93.9191 3.162V3.14429L94.7522 2.04829L94.2259 1.75L93.6911 2.97743H93.6733L93.1299 1.75857L92.5945 2.066L93.4191 3.13571V3.15343L92.1293 2.98657V3.58257L93.4276 3.41629V3.434L92.5945 4.50371L93.0939 4.81971L93.6648 3.58257H93.6819L94.2082 4.81057L94.7608 4.49514L93.9191 3.44257V3.42486L95.2425 3.58257ZM51.3876 10.3066L52.1065 9.36086L51.6528 9.10371L51.1916 10.1626H51.1762L50.7071 9.11114L50.2453 9.37629L50.9568 10.2991V10.314L49.8442 10.1706V10.6849L50.9642 10.5414V10.5563L50.2453 11.4791L50.6762 11.7517L51.1688 10.6849H51.1836L51.6373 11.7437L52.1139 11.4717L51.3876 10.5637V10.5489L52.5299 10.6849V10.1706L51.3876 10.3214V10.3066Z" fill="#0C7FCF"/>
<path d="M1.47281 87.0001C2.104 87.0001 2.61567 86.4884 2.61567 85.8572C2.61567 85.226 2.104 84.7144 1.47281 84.7144C0.841631 84.7144 0.329956 85.226 0.329956 85.8572C0.329956 86.4884 0.841631 87.0001 1.47281 87.0001Z" fill="#03275A"/>
<path d="M6.61569 84.7144H4.9014C4.5983 84.7144 4.30761 84.8348 4.09328 85.0491C3.87895 85.2634 3.75854 85.5541 3.75854 85.8572C3.75854 86.1603 3.87895 86.451 4.09328 86.6653C4.30761 86.8797 4.5983 87.0001 4.9014 87.0001H6.61569C6.91879 87.0001 7.20948 86.8797 7.42381 86.6653C7.63814 86.451 7.75854 86.1603 7.75854 85.8572C7.75854 85.5541 7.63814 85.2634 7.42381 85.0491C7.20948 84.8348 6.91879 84.7144 6.61569 84.7144ZM91.7586 84.7144H90.0443C89.7412 84.7144 89.4505 84.8348 89.2361 85.0491C89.0218 85.2634 88.9014 85.5541 88.9014 85.8572C88.9014 86.1603 89.0218 86.451 89.2361 86.6653C89.4505 86.8797 89.7412 87.0001 90.0443 87.0001H91.7586C92.0617 87.0001 92.3523 86.8797 92.5667 86.6653C92.781 86.451 92.9014 86.1603 92.9014 85.8572C92.9014 85.5541 92.781 85.2634 92.5667 85.0491C92.3523 84.8348 92.0617 84.7144 91.7586 84.7144Z" fill="#03275A"/>
<path d="M95.187 87.0001C95.8182 87.0001 96.3299 86.4884 96.3299 85.8572C96.3299 85.226 95.8182 84.7144 95.187 84.7144C94.5559 84.7144 94.0442 85.226 94.0442 85.8572C94.0442 86.4884 94.5559 87.0001 95.187 87.0001Z" fill="#03275A"/>
<path d="M67.8466 89.2856H63.0991C62.8113 89.308 62.5425 89.438 62.3464 89.6499C62.1504 89.8618 62.0414 90.1398 62.0414 90.4285C62.0414 90.7172 62.1504 90.9952 62.3464 91.2071C62.5425 91.419 62.8113 91.549 63.0991 91.5714H67.8466C68.1344 91.549 68.4032 91.419 68.5993 91.2071C68.7953 90.9952 68.9043 90.7172 68.9043 90.4285C68.9043 90.1398 68.7953 89.8618 68.5993 89.6499C68.4032 89.438 68.1344 89.308 67.8466 89.2856ZM33.5609 89.2856H28.8134C28.5256 89.308 28.2568 89.438 28.0607 89.6499C27.8647 89.8618 27.7557 90.1398 27.7557 90.4285C27.7557 90.7172 27.8647 90.9952 28.0607 91.2071C28.2568 91.419 28.5256 91.549 28.8134 91.5714H33.5609C33.8487 91.549 34.1175 91.419 34.3136 91.2071C34.5096 90.9952 34.6186 90.7172 34.6186 90.4285C34.6186 90.1398 34.5096 89.8618 34.3136 89.6499C34.1175 89.438 33.8487 89.308 33.5609 89.2856ZM59.7586 89.2856H36.9014C36.5983 89.2856 36.3076 89.4061 36.0933 89.6204C35.879 89.8347 35.7586 90.1254 35.7586 90.4285C35.7586 90.7316 35.879 91.0223 36.0933 91.2366C36.3076 91.451 36.5983 91.5714 36.9014 91.5714H46.01V92.7142H41.4729C41.1698 92.7142 40.8791 92.8346 40.6647 93.049C40.4504 93.2633 40.33 93.554 40.33 93.8571C40.33 94.1602 40.4504 94.4509 40.6647 94.6652C40.8791 94.8795 41.1698 94.9999 41.4729 94.9999H55.7586C56.0617 94.9999 56.3524 94.8795 56.5667 94.6652C56.781 94.4509 56.9014 94.1602 56.9014 93.8571C56.9014 93.554 56.781 93.2633 56.5667 93.049C56.3524 92.8346 56.0617 92.7142 55.7586 92.7142H50.65V91.5714H59.7586C60.0617 91.5714 60.3524 91.451 60.5667 91.2366C60.781 91.0223 60.9014 90.7316 60.9014 90.4285C60.9014 90.1254 60.781 89.8347 60.5667 89.6204C60.3524 89.4061 60.0617 89.2856 59.7586 89.2856Z" fill="#0C7FCF"/>
<path d="M86.4561 84.7148H81.4756C81.85 84.0182 82.0453 83.2394 82.0441 82.4485V38.8102C82.0423 38.6453 82.0224 38.4811 81.9847 38.3205C82.0448 38.0515 82.0555 37.7739 82.0161 37.5011L78.5876 15.7868C78.5026 15.2491 78.2285 14.7593 77.8146 14.4057C77.4007 14.0521 76.8742 13.8577 76.3298 13.8577C75.7854 13.8577 75.2589 14.0521 74.845 14.4057C74.4312 14.7593 74.1571 15.2491 74.0721 15.7868L70.6436 37.5011C70.6043 37.7739 70.6149 38.0515 70.675 38.3205C70.6373 38.4811 70.6174 38.6453 70.6156 38.8102V82.4485C70.6143 83.2394 70.8097 84.0182 71.1841 84.7148H66.5441C66.9634 84.026 67.1857 83.2354 67.187 82.4291V18.4291C67.1619 17.1939 66.6481 16.019 65.7581 15.1621C64.8682 14.3052 63.6748 13.8361 62.4396 13.8576H19.363C18.1277 13.8361 16.9343 14.3052 16.0444 15.1621C15.1544 16.019 14.6406 17.1939 14.6155 18.4291V82.4291C14.6167 83.2354 14.8388 84.0259 15.2578 84.7148H10.2041C10.0415 84.6935 9.87629 84.7072 9.71941 84.755C9.56254 84.8027 9.41765 84.8833 9.29443 84.9915C9.1712 85.0996 9.07248 85.2329 9.00484 85.3822C8.93721 85.5316 8.90222 85.6937 8.90222 85.8576C8.90222 86.0216 8.93721 86.1837 9.00484 86.3331C9.07248 86.4824 9.1712 86.6156 9.29443 86.7238C9.41765 86.832 9.56254 86.9126 9.71941 86.9603C9.87629 87.008 10.0415 87.0217 10.2041 87.0005H86.4556C86.6181 87.0217 86.7834 87.008 86.9403 86.9603C87.0971 86.9126 87.242 86.832 87.3652 86.7238C87.4885 86.6156 87.5872 86.4824 87.6548 86.3331C87.7225 86.1837 87.7574 86.0216 87.7574 85.8576C87.7574 85.6937 87.7225 85.5316 87.6548 85.3822C87.5872 85.2329 87.4885 85.0996 87.3652 84.9915C87.242 84.8833 87.0971 84.8027 86.9403 84.755C86.7834 84.7072 86.6187 84.6935 86.4561 84.7148ZM76.3298 16.1434L79.7584 37.8576H72.9013L76.3298 16.1434ZM16.9013 18.4291C16.9254 17.7998 17.1981 17.2058 17.6596 16.7773C18.121 16.3488 18.7336 16.1208 19.363 16.1434H62.4396C63.0689 16.1208 63.6815 16.3488 64.143 16.7773C64.6045 17.2058 64.8772 17.7998 64.9013 18.4291V20.1434H16.9013V18.4291ZM16.9013 22.4291H64.9013V63.5719H16.9013V22.4291ZM19.363 84.7148C18.7336 84.7373 18.121 84.5094 17.6596 84.0809C17.1981 83.6524 16.9254 83.0584 16.9013 82.4291V65.8576H64.9013V82.4291C64.8772 83.0584 64.6045 83.6524 64.143 84.0809C63.6815 84.5094 63.0689 84.7373 62.4396 84.7148H19.363ZM74.8601 84.7148C74.301 84.6711 73.7817 84.4085 73.4149 83.9842C73.0482 83.5599 72.8636 83.0081 72.9013 82.4485V40.1434H79.7584V82.4485C79.7961 83.0082 79.6114 83.5601 79.2446 83.9844C78.8777 84.4087 78.3582 84.6712 77.799 84.7148H74.8601Z" fill="#03275A"/>
</g>
<defs>
<clipPath id="clip0_3540_2043">
<rect width="96" height="96" fill="white" transform="translate(0.329956)"/>
</clipPath>
</defs>
</svg>
