<svg width="97" height="96" viewBox="0 0 97 96" fill="none" xmlns="http://www.w3.org/2000/svg">
<g clip-path="url(#clip0_3540_2065)">
<path d="M27.7636 30.1646H55.7636C56.0667 30.1646 56.3574 30.0442 56.5717 29.8299C56.786 29.6156 56.9064 29.3249 56.9064 29.0218C56.9064 28.7187 56.786 28.428 56.5717 28.2136C56.3574 27.9993 56.0667 27.8789 55.7636 27.8789H27.7636C27.4605 27.8789 27.1698 27.9993 26.9555 28.2136C26.7411 28.428 26.6207 28.7187 26.6207 29.0218C26.6207 29.3249 26.7411 29.6156 26.9555 29.8299C27.1698 30.0442 27.4605 30.1646 27.7636 30.1646Z" fill="#0C7FCF"/>
<path d="M27.7636 37.0216H55.7636C56.0667 37.0216 56.3574 36.9011 56.5717 36.6868C56.786 36.4725 56.9064 36.1818 56.9064 35.8787C56.9064 35.5756 56.786 35.2849 56.5717 35.0706C56.3574 34.8562 56.0667 34.7358 55.7636 34.7358H27.7636C27.4605 34.7358 27.1698 34.8562 26.9555 35.0706C26.7411 35.2849 26.6207 35.5756 26.6207 35.8787C26.6207 36.1818 26.7411 36.4725 26.9555 36.6868C27.1698 36.9011 27.4605 37.0216 27.7636 37.0216ZM65.5984 69.8147C65.2791 70.242 64.8748 70.5986 64.411 70.8621L74.123 74.449C74.4218 74.5668 74.7391 74.6307 75.0602 74.6376C75.2832 74.646 75.5051 74.6019 75.708 74.5087C75.9109 74.4156 76.0891 74.2762 76.2282 74.1016C76.4369 73.8149 76.5417 73.4657 76.5254 73.1115C76.5091 72.7573 76.3726 72.4192 76.1384 72.153C76.1186 72.1235 76.0974 72.0949 76.075 72.0673L73.7539 69.2301L77.2242 68.5581C77.2624 68.5501 77.2996 68.541 77.3362 68.5301C77.6799 68.4707 77.9935 68.2972 78.2265 68.0376C78.4595 67.7779 78.5981 67.4474 78.6201 67.0993C78.6321 66.6856 78.4687 65.9238 77.2339 65.469L68.5767 62.2707C68.4264 62.6328 68.2268 62.9723 67.9836 63.2798C68.0852 63.6889 68.125 64.1109 68.1019 64.5318L74.2544 66.805L71.4402 67.3501C71.246 67.3877 71.0648 67.475 70.9145 67.6036C70.7642 67.7322 70.6498 67.8975 70.5825 68.0835C70.5153 68.2695 70.4974 68.4698 70.5308 68.6648C70.5641 68.8598 70.6475 69.0428 70.7727 69.1958L72.6242 71.4587L66.0533 69.0324C65.9327 69.3102 65.78 69.5724 65.5984 69.8147Z" fill="#03275A"/>
<path d="M27.7636 43.879H49.459C49.9756 43.5738 50.556 43.3926 51.1544 43.3498C51.2356 43.3441 51.3493 43.3401 51.4304 43.3401C52.1324 43.3416 52.8217 43.5274 53.4293 43.879H53.5413C54.0145 43.6933 54.5181 43.5972 55.0264 43.5955C55.3042 43.5956 55.5812 43.6253 55.8527 43.6841C55.9779 43.711 56.0864 43.7544 56.2019 43.7915C56.4459 43.6902 56.6473 43.5073 56.7718 43.2741C56.8962 43.041 56.9359 42.7719 56.8843 42.5127C56.8326 42.2535 56.6927 42.0202 56.4883 41.8526C56.284 41.6849 56.0279 41.5933 55.7636 41.5933H27.7636C27.4605 41.5933 27.1698 41.7137 26.9555 41.928C26.7411 42.1423 26.6207 42.433 26.6207 42.7361C26.6207 43.0392 26.7411 43.3299 26.9555 43.5442C27.1698 43.7586 27.4605 43.879 27.7636 43.879Z" fill="#0C7FCF"/>
<path d="M27.7636 51.3072H38.4133C38.6564 50.3674 39.2417 49.5522 40.0545 49.0215H27.763C27.4599 49.0215 27.1692 49.1419 26.9549 49.3562C26.7406 49.5705 26.6202 49.8612 26.6202 50.1643C26.6202 50.4674 26.7406 50.7581 26.9549 50.9725C27.1692 51.1868 27.4605 51.3072 27.7636 51.3072Z" fill="#03275A"/>
<path d="M27.7636 58.1646H35.8893C36.0211 57.5482 36.2937 56.9707 36.6859 56.4772C36.6381 56.2803 36.6037 56.0804 36.583 55.8789H27.7636C27.4605 55.8789 27.1698 55.9993 26.9555 56.2136C26.7411 56.428 26.6207 56.7187 26.6207 57.0218C26.6207 57.3249 26.7411 57.6156 26.9555 57.8299C27.1698 58.0442 27.4605 58.1646 27.7636 58.1646Z" fill="#0C7FCF"/>
<path d="M27.7636 65.5933H37.319C37.3224 65.5533 37.3236 65.5116 37.3276 65.4722C36.7289 64.9183 36.3141 64.1945 36.139 63.3979C36.1327 63.367 36.1299 63.3379 36.1242 63.3076H27.7636C27.4605 63.3076 27.1698 63.428 26.9555 63.6424C26.7411 63.8567 26.6207 64.1474 26.6207 64.4505C26.6207 64.7536 26.7411 65.0443 26.9555 65.2586C27.1698 65.4729 27.4605 65.5933 27.7636 65.5933Z" fill="#03275A"/>
<path d="M27.7636 72.4503H41.9207C41.4106 72.2482 40.9494 71.9398 40.5676 71.5457C40.1858 71.1516 39.8923 70.6808 39.7064 70.1646H27.7636C27.4605 70.1646 27.1698 70.285 26.9555 70.4993C26.7411 70.7136 26.6207 71.0043 26.6207 71.3074C26.6207 71.6105 26.7411 71.9012 26.9555 72.1155C27.1698 72.3299 27.4605 72.4503 27.7636 72.4503Z" fill="#0C7FCF"/>
<path d="M66.2956 56.844C66.1905 56.5148 66.0154 56.2123 65.7823 55.9572C65.5492 55.7021 65.2637 55.5005 64.9453 55.3663C64.887 55.3326 64.8161 55.292 64.7499 55.252C64.7733 55.1806 64.7996 55.1057 64.8207 55.044C65.0069 54.7451 65.1105 54.4022 65.121 54.0503C65.1314 53.6983 65.0484 53.3499 64.8803 53.0404C64.7122 52.731 64.4651 52.4717 64.1641 52.289C63.8631 52.1062 63.5191 52.0065 63.167 52C63.1007 51.984 63.0202 51.9646 62.9442 51.9446C62.9459 51.8703 62.9499 51.7937 62.9527 51.7303C63.0466 51.3883 63.0482 51.0275 62.9575 50.6847C62.8667 50.3419 62.6868 50.0292 62.4361 49.7784C62.1853 49.5276 61.8726 49.3477 61.5297 49.257C61.1869 49.1662 60.8262 49.1679 60.4842 49.2617C60.4207 49.2646 60.3436 49.268 60.2699 49.2703C60.2499 49.1943 60.2299 49.1132 60.2144 49.0474C60.2082 48.6952 60.1086 48.351 59.9259 48.0498C59.7431 47.7486 59.4837 47.5014 59.1741 47.3332C58.8646 47.1651 58.5159 47.0821 58.1638 47.0927C57.8117 47.1033 57.4687 47.2072 57.1699 47.3937C57.1087 47.4154 57.0339 47.4412 56.9624 47.4646C56.9224 47.3983 56.8813 47.3274 56.8482 47.2692C56.7431 46.9329 56.5507 46.6306 56.2906 46.3931C56.0305 46.1555 55.7121 45.9911 55.3678 45.9168C55.0235 45.8424 54.6656 45.8607 54.3307 45.9698C53.9958 46.0789 53.6958 46.2749 53.4613 46.5377C53.4082 46.5766 53.3424 46.6234 53.2796 46.6657C53.223 46.6143 53.1653 46.5589 53.1167 46.5132C52.9216 46.2203 52.6523 45.9843 52.3363 45.8292C52.0204 45.6742 51.669 45.6056 51.3179 45.6305C50.9668 45.6553 50.6286 45.7727 50.3376 45.9707C50.0466 46.1687 49.8133 46.4403 49.6613 46.7577C49.6202 46.8103 49.5699 46.8743 49.5207 46.9337C49.4533 46.9006 49.3824 46.8634 49.3247 46.8332C49.0553 46.6062 48.7305 46.4547 48.3835 46.3942C48.0364 46.3336 47.6795 46.3662 47.3492 46.4886C47.0188 46.611 46.7269 46.8188 46.503 47.0909C46.2792 47.3629 46.1315 47.6894 46.075 48.0372C46.0499 48.1 46.019 48.1766 45.9887 48.2486C45.9176 48.2359 45.8465 48.2226 45.7756 48.2086C45.4533 48.0665 45.0992 48.0125 44.7493 48.0519C44.3993 48.0914 44.0661 48.2229 43.7836 48.4331C43.5011 48.6433 43.2793 48.9247 43.141 49.2486C43.0027 49.5724 42.9527 49.9271 42.9961 50.2766C42.9888 50.3567 42.9806 50.4367 42.9716 50.5166C42.8917 50.5256 42.8117 50.5338 42.7316 50.5411C42.3883 50.5306 42.0468 50.5943 41.7304 50.7279C41.414 50.8616 41.1302 51.062 40.8984 51.3154C40.7168 51.6127 40.6018 51.9457 40.5613 52.2917C40.5209 52.6377 40.556 52.9883 40.6641 53.3194C40.6756 53.3823 40.691 53.4594 40.7042 53.5331C40.6316 53.5634 40.5556 53.5937 40.4927 53.6189C40.145 53.6752 39.8185 53.8229 39.5464 54.0466C39.2743 54.2704 39.0665 54.5623 38.9441 54.8927C38.8217 55.223 38.7891 55.5798 38.8497 55.9269C38.9102 56.2739 39.0617 56.5986 39.2887 56.868C39.319 56.9257 39.3556 56.9971 39.3893 57.0646C39.3293 57.1137 39.2653 57.1634 39.2127 57.2052C38.895 57.357 38.6233 57.5903 38.4251 57.8814C38.2269 58.1725 38.1095 58.5109 38.0847 58.8621C38.0599 59.2134 38.1286 59.5649 38.2839 59.8809C38.4392 60.197 38.6755 60.4662 38.9687 60.6611C39.0144 60.7086 39.0693 60.7669 39.1213 60.8234C39.0784 60.8863 39.0316 60.9514 38.9933 61.0052C38.7306 61.2397 38.5347 61.5396 38.4257 61.8745C38.3167 62.2094 38.2984 62.5671 38.3727 62.9114C38.447 63.2556 38.6112 63.574 38.8486 63.8341C39.086 64.0942 39.3881 64.2867 39.7242 64.392C39.7819 64.4251 39.8527 64.4663 39.919 64.5069C39.8962 64.5783 39.8699 64.6531 39.8487 64.7143C39.6624 65.0132 39.5587 65.3561 39.5482 65.7082C39.5376 66.0602 39.6206 66.4088 39.7887 66.7183C39.9569 67.0278 40.204 67.2872 40.5051 67.47C40.8061 67.6528 41.1503 67.7525 41.5024 67.7589C41.5682 67.7749 41.6493 67.7943 41.7253 67.8143C41.723 67.8886 41.7196 67.9651 41.7167 68.0286C41.6229 68.3706 41.6212 68.7313 41.712 69.0742C41.8027 69.417 41.9826 69.7297 42.2334 69.9805C42.4842 70.2313 42.7969 70.4112 43.1397 70.5019C43.4825 70.5927 43.8433 70.591 44.1853 70.4972C44.2482 70.4949 44.3259 70.4909 44.3996 70.4886C44.4196 70.5646 44.439 70.6451 44.455 70.7114C44.4616 71.0635 44.5614 71.4075 44.7442 71.7085C44.9271 72.0094 45.1864 72.2565 45.4959 72.4246C45.8053 72.5927 46.1538 72.6757 46.5057 72.6653C46.8577 72.6548 47.2007 72.5513 47.4996 72.3651C47.5607 72.344 47.6356 72.3177 47.7064 72.2949C47.7464 72.3606 47.7876 72.432 47.8207 72.4891C47.926 72.8253 48.1185 73.1275 48.3786 73.365C48.6387 73.6025 48.9571 73.7668 49.3014 73.8412C49.6456 73.9156 50.0035 73.8974 50.3384 73.7885C50.6734 73.6796 50.9735 73.4838 51.2082 73.2211C51.2613 73.1829 51.327 73.1366 51.3899 73.0931C51.4464 73.1446 51.5041 73.2006 51.5527 73.2463C51.9739 73.7518 52.5777 74.0705 53.2327 74.1331C53.2727 74.1331 53.3127 74.132 53.3527 74.1291C53.6937 74.0716 54.0181 73.941 54.3039 73.7463C54.5896 73.5516 54.8299 73.2974 55.0082 73.0011C55.0493 72.9491 55.0996 72.8851 55.1487 72.8257C55.2167 72.8589 55.2876 72.896 55.3453 72.9263C55.6147 73.1533 55.9395 73.3048 56.2866 73.3653C56.6336 73.4258 56.9905 73.3932 57.3208 73.2707C57.6512 73.1483 57.9431 72.9404 58.1669 72.6682C58.3906 72.3961 58.5381 72.0695 58.5944 71.7217C58.6196 71.6589 58.6504 71.5829 58.6807 71.5109C58.755 71.5234 58.8316 71.5383 58.895 71.5509C59.2172 71.6925 59.5713 71.7462 59.921 71.7065C60.2707 71.6668 60.6037 71.5351 60.886 71.3249C61.1683 71.1147 61.3899 70.8335 61.5282 70.5098C61.6665 70.1861 61.7166 69.8316 61.6733 69.4823C61.6802 69.4114 61.6882 69.324 61.6979 69.2423C61.779 69.2332 61.867 69.2246 61.9379 69.2177C62.2812 69.2283 62.6227 69.1646 62.9391 69.0309C63.2555 68.8973 63.5392 68.6969 63.771 68.4434C63.9526 68.1462 64.0677 67.8131 64.1081 67.4671C64.1486 67.1212 64.1135 66.7705 64.0053 66.4394C63.9933 66.3766 63.9784 66.2994 63.9653 66.2257C64.0379 66.1954 64.1139 66.1646 64.1767 66.14C64.5244 66.0836 64.851 65.936 65.1231 65.7122C65.3951 65.4885 65.6029 65.1965 65.7253 64.8662C65.8477 64.5359 65.8803 64.179 65.8198 63.832C65.7592 63.485 65.6077 63.1602 65.3807 62.8909C65.3504 62.8326 65.3139 62.7623 65.2801 62.6943C65.3396 62.6451 65.4036 62.5949 65.4562 62.5543C65.7739 62.4026 66.0458 62.1693 66.244 61.8783C66.4423 61.5873 66.5599 61.2489 66.5848 60.8977C66.6097 60.5464 66.5411 60.1948 66.3859 59.8787C66.2307 59.5627 65.9945 59.2934 65.7013 59.0983C65.6556 59.0503 65.5996 58.9926 65.5482 58.9354C65.591 58.8726 65.6373 58.8074 65.6756 58.7543C65.9106 58.4996 66.0878 58.197 66.1948 57.8674C66.3018 57.5377 66.3362 57.1882 66.2956 56.844ZM64.0424 60.7577C63.7655 60.9001 63.5236 61.102 63.3339 61.3489C63.1442 61.5957 63.0115 61.8816 62.9454 62.1858C62.8792 62.49 62.8811 62.8051 62.951 63.1085C63.021 63.4119 63.1572 63.696 63.3499 63.9406C63.3596 63.9577 63.3693 63.9766 63.379 63.996L63.3276 64.0171C63.0219 64.0752 62.7329 64.2001 62.4812 64.383C62.2295 64.5658 62.0213 64.802 61.8716 65.0747C61.7218 65.3474 61.6343 65.6499 61.6151 65.9604C61.5959 66.2709 61.6457 66.5818 61.7607 66.8709L61.7733 66.9371L61.7219 66.9417C61.4092 66.9118 61.0939 66.9514 60.7983 67.0576C60.5028 67.1639 60.2344 67.3341 60.0123 67.5562C59.7902 67.7782 59.62 68.0466 59.5138 68.3422C59.4076 68.6377 59.368 68.9531 59.3979 69.2657L59.3927 69.3183L59.3264 69.3051C58.7368 69.1244 58.1018 69.1623 57.5379 69.412C57.0193 69.7553 56.6413 70.2734 56.4727 70.872L56.4516 70.9246C56.4322 70.9143 56.4133 70.904 56.3956 70.8954C56.1511 70.7027 55.8671 70.5664 55.5638 70.4963C55.2605 70.4263 54.9454 70.4242 54.6412 70.4902C54.337 70.5562 54.0512 70.6887 53.8042 70.8782C53.5572 71.0677 53.3552 71.3095 53.2127 71.5863L53.1744 71.6343L53.1299 71.592C52.7289 71.1188 52.1712 70.8055 51.5584 70.7091C51.5183 70.7063 51.4781 70.7047 51.4379 70.7046C50.8624 70.7517 50.3169 70.9811 49.8807 71.3594L49.8293 71.396L49.8002 71.3446C49.6988 71.0503 49.5337 70.7822 49.3165 70.5593C49.0994 70.3364 48.8356 70.1644 48.5441 70.0555C48.2526 69.9465 47.9406 69.9035 47.6305 69.9294C47.3204 69.9552 47.0198 70.0494 46.7504 70.2051L46.6893 70.2263L46.6762 70.1737C46.5946 69.5562 46.2941 68.9884 45.8293 68.5737C45.3076 68.2469 44.6856 68.1191 44.0773 68.2137L43.9961 68.2177L43.9996 68.1366C44.0941 67.5279 43.9663 66.9056 43.6396 66.3834C43.2247 65.9188 42.657 65.6184 42.0396 65.5366L41.987 65.5234L42.0082 65.4629C42.1637 65.1934 42.2577 64.8929 42.2834 64.5828C42.3092 64.2728 42.2661 63.9609 42.1572 63.6695C42.0483 63.378 41.8764 63.1143 41.6536 62.8971C41.4308 62.6799 41.1628 62.5146 40.8687 62.4131C40.8517 62.4031 40.8345 62.3932 40.8173 62.3834L40.8539 62.332C41.0796 62.1175 41.255 61.8557 41.3676 61.5654C41.4801 61.2751 41.527 60.9634 41.5049 60.6528C41.4828 60.3422 41.3922 60.0404 41.2396 59.7689C41.087 59.4975 40.8763 59.2632 40.6224 59.0829L40.5796 59.0372L40.627 59.0006C40.9039 58.8581 41.1458 58.6561 41.3354 58.4092C41.525 58.1622 41.6576 57.8763 41.7238 57.5721C41.7899 57.2678 41.7879 56.9527 41.7179 56.6493C41.648 56.3459 41.5117 56.0617 41.319 55.8172L41.2904 55.7612L41.3419 55.7406C41.6475 55.6825 41.9365 55.5576 42.1883 55.3748C42.44 55.1919 42.6481 54.9557 42.7979 54.683C42.9476 54.4103 43.0352 54.1079 43.0544 53.7973C43.0735 53.4868 43.0238 53.1759 42.9087 52.8869L42.8962 52.8206L42.9476 52.816C43.2602 52.8459 43.5756 52.8063 43.8711 52.7001C44.1667 52.5939 44.4351 52.4236 44.6571 52.2016C44.8792 51.9795 45.0494 51.7111 45.1557 51.4155C45.2619 51.12 45.3015 50.8046 45.2716 50.492L45.2767 50.44L45.343 50.4526C45.9324 50.633 46.567 50.5955 47.131 50.3469C47.6498 50.0034 48.028 49.4851 48.1967 48.8863L48.2179 48.8337L48.2744 48.8629C48.5189 49.0556 48.803 49.1919 49.1063 49.2619C49.4097 49.3319 49.7247 49.3339 50.0289 49.2679C50.3332 49.2018 50.619 49.0692 50.8659 48.8796C51.1129 48.6901 51.3148 48.4482 51.4573 48.1714L51.4944 48.124L51.5402 48.1663C51.7205 48.4202 51.9547 48.631 52.2261 48.7836C52.4975 48.9362 52.7994 49.0269 53.11 49.0491C53.4206 49.0713 53.7322 49.0244 54.0226 48.9119C54.3129 48.7994 54.5748 48.624 54.7893 48.3983L54.8396 48.3617L54.8693 48.4126C54.9707 48.7068 55.1359 48.975 55.3531 49.1979C55.5703 49.4207 55.8341 49.5928 56.1257 49.7018C56.4172 49.8107 56.7292 49.8538 57.0393 49.828C57.3495 49.8023 57.6501 49.7082 57.9196 49.5526L57.9801 49.5314L57.9927 49.5829C58.0739 50.2009 58.3744 50.7691 58.8396 51.184C59.3618 51.5107 59.9841 51.6385 60.5927 51.544L60.6733 51.5406L60.6699 51.6211C60.5753 52.2293 60.7027 52.8512 61.0287 53.3731C61.4434 53.839 62.012 54.14 62.6304 54.2212L62.6819 54.2337L62.6607 54.2954C62.5051 54.5649 62.4111 54.8655 62.3853 55.1757C62.3596 55.4858 62.4028 55.7978 62.5118 56.0893C62.6208 56.3808 62.7929 56.6445 63.0159 56.8616C63.2388 57.0788 63.507 57.2439 63.8013 57.3451C63.8173 57.3543 63.8344 57.364 63.8516 57.3749L63.815 57.4252C63.5892 57.6397 63.4137 57.9017 63.3011 58.1921C63.1886 58.4826 63.1417 58.7943 63.1639 59.1051C63.186 59.4158 63.2767 59.7177 63.4294 59.9892C63.5821 60.2607 63.793 60.4951 64.047 60.6754L64.0893 60.72L64.0424 60.7577Z" fill="#03275A"/>
<path d="M55.971 63.516C55.2517 64.2352 54.3354 64.7249 53.3378 64.9233C52.3402 65.1217 51.3062 65.0198 50.3665 64.6305C49.4268 64.2412 48.6237 63.582 48.0586 62.7363C47.4935 61.8906 47.1919 60.8963 47.1919 59.8792C47.1919 58.8621 47.4935 57.8678 48.0586 57.0221C48.6237 56.1763 49.4268 55.5172 50.3665 55.1279C51.3062 54.7386 52.3402 54.6367 53.3378 54.8351C54.3354 55.0335 55.2517 55.5232 55.971 56.2423C56.934 57.2077 57.4748 58.5156 57.4748 59.8792C57.4748 61.2428 56.934 62.5507 55.971 63.516Z" fill="#0C7FCF"/>
<path d="M1.47788 86.1646C2.10906 86.1646 2.62074 85.6529 2.62074 85.0218C2.62074 84.3906 2.10906 83.8789 1.47788 83.8789C0.846697 83.8789 0.335022 84.3906 0.335022 85.0218C0.335022 85.6529 0.846697 86.1646 1.47788 86.1646Z" fill="#03275A"/>
<path d="M6.62072 83.8789H4.90644C4.60333 83.8789 4.31264 83.9993 4.09832 84.2136C3.88399 84.428 3.76358 84.7187 3.76358 85.0218C3.76358 85.3249 3.88399 85.6156 4.09832 85.8299C4.31264 86.0442 4.60333 86.1646 4.90644 86.1646H6.62072C6.92383 86.1646 7.21452 86.0442 7.42885 85.8299C7.64317 85.6156 7.76358 85.3249 7.76358 85.0218C7.76358 84.7187 7.64317 84.428 7.42885 84.2136C7.21452 83.9993 6.92383 83.8789 6.62072 83.8789ZM91.7636 83.8789H90.0493C89.7462 83.8789 89.4555 83.9993 89.2412 84.2136C89.0268 84.428 88.9064 84.7187 88.9064 85.0218C88.9064 85.3249 89.0268 85.6156 89.2412 85.8299C89.4555 86.0442 89.7462 86.1646 90.0493 86.1646H91.7636C92.0667 86.1646 92.3574 86.0442 92.5717 85.8299C92.786 85.6156 92.9064 85.3249 92.9064 85.0218C92.9064 84.7187 92.786 84.428 92.5717 84.2136C92.3574 83.9993 92.0667 83.8789 91.7636 83.8789Z" fill="#03275A"/>
<path d="M95.1922 86.1646C95.8234 86.1646 96.335 85.6529 96.335 85.0218C96.335 84.3906 95.8234 83.8789 95.1922 83.8789C94.561 83.8789 94.0493 84.3906 94.0493 85.0218C94.0493 85.6529 94.561 86.1646 95.1922 86.1646Z" fill="#03275A"/>
<path d="M67.8516 88.4502H63.1041C62.8163 88.4725 62.5475 88.6026 62.3515 88.8145C62.1554 89.0263 62.0465 89.3044 62.0465 89.5931C62.0465 89.8817 62.1554 90.1598 62.3515 90.3717C62.5475 90.5835 62.8163 90.7136 63.1041 90.7359H67.8516C68.1394 90.7136 68.4082 90.5835 68.6043 90.3717C68.8004 90.1598 68.9093 89.8817 68.9093 89.5931C68.9093 89.3044 68.8004 89.0263 68.6043 88.8145C68.4082 88.6026 68.1394 88.4725 67.8516 88.4502ZM33.5659 88.4502H28.8184C28.5306 88.4725 28.2618 88.6026 28.0657 88.8145C27.8697 89.0263 27.7607 89.3044 27.7607 89.5931C27.7607 89.8817 27.8697 90.1598 28.0657 90.3717C28.2618 90.5835 28.5306 90.7136 28.8184 90.7359H33.5659C33.8537 90.7136 34.1225 90.5835 34.3186 90.3717C34.5146 90.1598 34.6236 89.8817 34.6236 89.5931C34.6236 89.3044 34.5146 89.0263 34.3186 88.8145C34.1225 88.6026 33.8537 88.4725 33.5659 88.4502ZM59.7636 88.4502H36.9064C36.6033 88.4502 36.3126 88.5706 36.0983 88.7849C35.884 88.9993 35.7636 89.2899 35.7636 89.5931C35.7636 89.8962 35.884 90.1868 36.0983 90.4012C36.3126 90.6155 36.6033 90.7359 36.9064 90.7359H46.015V91.8788H41.4779C41.1748 91.8788 40.8841 91.9992 40.6697 92.2135C40.4554 92.4278 40.335 92.7185 40.335 93.0216C40.335 93.3247 40.4554 93.6154 40.6697 93.8297C40.8841 94.0441 41.1748 94.1645 41.4779 94.1645H55.7636C56.0667 94.1645 56.3574 94.0441 56.5717 93.8297C56.786 93.6154 56.9064 93.3247 56.9064 93.0216C56.9064 92.7185 56.786 92.4278 56.5717 92.2135C56.3574 91.9992 56.0667 91.8788 55.7636 91.8788H50.655V90.7359H59.7636C60.0667 90.7359 60.3574 90.6155 60.5717 90.4012C60.786 90.1868 60.9064 89.8962 60.9064 89.5931C60.9064 89.2899 60.786 88.9993 60.5717 88.7849C60.3574 88.5706 60.0667 88.4502 59.7636 88.4502Z" fill="#0C7FCF"/>
<path d="M1.47788 86.1646C2.10906 86.1646 2.62074 85.6529 2.62074 85.0218C2.62074 84.3906 2.10906 83.8789 1.47788 83.8789C0.846697 83.8789 0.335022 84.3906 0.335022 85.0218C0.335022 85.6529 0.846697 86.1646 1.47788 86.1646Z" fill="#03275A"/>
<path d="M6.62072 83.8789H4.90644C4.60333 83.8789 4.31264 83.9993 4.09832 84.2136C3.88399 84.428 3.76358 84.7187 3.76358 85.0218C3.76358 85.3249 3.88399 85.6156 4.09832 85.8299C4.31264 86.0442 4.60333 86.1646 4.90644 86.1646H6.62072C6.92383 86.1646 7.21452 86.0442 7.42885 85.8299C7.64317 85.6156 7.76358 85.3249 7.76358 85.0218C7.76358 84.7187 7.64317 84.428 7.42885 84.2136C7.21452 83.9993 6.92383 83.8789 6.62072 83.8789ZM91.7636 83.8789H90.0493C89.7462 83.8789 89.4555 83.9993 89.2412 84.2136C89.0268 84.428 88.9064 84.7187 88.9064 85.0218C88.9064 85.3249 89.0268 85.6156 89.2412 85.8299C89.4555 86.0442 89.7462 86.1646 90.0493 86.1646H91.7636C92.0667 86.1646 92.3574 86.0442 92.5717 85.8299C92.786 85.6156 92.9064 85.3249 92.9064 85.0218C92.9064 84.7187 92.786 84.428 92.5717 84.2136C92.3574 83.9993 92.0667 83.8789 91.7636 83.8789Z" fill="#03275A"/>
<path d="M95.1922 86.1646C95.8234 86.1646 96.335 85.6529 96.335 85.0218C96.335 84.3906 95.8234 83.8789 95.1922 83.8789C94.561 83.8789 94.0493 84.3906 94.0493 85.0218C94.0493 85.6529 94.561 86.1646 95.1922 86.1646Z" fill="#03275A"/>
<path d="M67.8516 88.4502H63.1041C62.8163 88.4725 62.5475 88.6026 62.3515 88.8145C62.1554 89.0263 62.0465 89.3044 62.0465 89.5931C62.0465 89.8817 62.1554 90.1598 62.3515 90.3717C62.5475 90.5835 62.8163 90.7136 63.1041 90.7359H67.8516C68.1394 90.7136 68.4082 90.5835 68.6043 90.3717C68.8004 90.1598 68.9093 89.8817 68.9093 89.5931C68.9093 89.3044 68.8004 89.0263 68.6043 88.8145C68.4082 88.6026 68.1394 88.4725 67.8516 88.4502ZM33.5659 88.4502H28.8184C28.5306 88.4725 28.2618 88.6026 28.0657 88.8145C27.8697 89.0263 27.7607 89.3044 27.7607 89.5931C27.7607 89.8817 27.8697 90.1598 28.0657 90.3717C28.2618 90.5835 28.5306 90.7136 28.8184 90.7359H33.5659C33.8537 90.7136 34.1225 90.5835 34.3186 90.3717C34.5146 90.1598 34.6236 89.8817 34.6236 89.5931C34.6236 89.3044 34.5146 89.0263 34.3186 88.8145C34.1225 88.6026 33.8537 88.4725 33.5659 88.4502ZM59.7636 88.4502H36.9064C36.6033 88.4502 36.3126 88.5706 36.0983 88.7849C35.884 88.9993 35.7636 89.2899 35.7636 89.5931C35.7636 89.8962 35.884 90.1868 36.0983 90.4012C36.3126 90.6155 36.6033 90.7359 36.9064 90.7359H46.015V91.8788H41.4779C41.1748 91.8788 40.8841 91.9992 40.6697 92.2135C40.4554 92.4278 40.335 92.7185 40.335 93.0216C40.335 93.3247 40.4554 93.6154 40.6697 93.8297C40.8841 94.0441 41.1748 94.1645 41.4779 94.1645H55.7636C56.0667 94.1645 56.3574 94.0441 56.5717 93.8297C56.786 93.6154 56.9064 93.3247 56.9064 93.0216C56.9064 92.7185 56.786 92.4278 56.5717 92.2135C56.3574 91.9992 56.0667 91.8788 55.7636 91.8788H50.655V90.7359H59.7636C60.0667 90.7359 60.3574 90.6155 60.5717 90.4012C60.786 90.1868 60.9064 89.8962 60.9064 89.5931C60.9064 89.2899 60.786 88.9993 60.5717 88.7849C60.3574 88.5706 60.0667 88.4502 59.7636 88.4502Z" fill="#0C7FCF"/>
<path d="M86.4613 83.8789H66.395C66.4516 83.8472 66.506 83.8117 66.5579 83.7726C66.8836 83.5166 67.3613 82.9023 66.9047 81.6686L63.3179 71.9555C63.0541 72.4197 62.6971 72.8244 62.2693 73.144C62.0267 73.3241 61.7642 73.4757 61.487 73.596L63.9144 80.168L61.6516 78.3172C61.4985 78.1919 61.3155 78.1085 61.1205 78.0752C60.9256 78.0419 60.7253 78.0597 60.5393 78.127C60.3533 78.1942 60.1879 78.3086 60.0593 78.4589C59.9308 78.6093 59.8434 78.7904 59.8059 78.9846L59.2607 81.8L56.9836 75.6349C56.5631 75.6617 56.1409 75.6271 55.7304 75.532C55.4241 75.7732 55.0861 75.9712 54.7259 76.1206L57.5922 83.8789H21.8127C21.0122 83.8789 20.335 83.0195 20.335 82.0017V17.1846C20.335 16.1674 21.0122 15.3075 21.8127 15.3075H51.5493V24.4503C51.5493 24.7534 51.6697 25.0441 51.884 25.2584C52.0984 25.4728 52.389 25.5932 52.6922 25.5932H63.1922V47.5172C63.5071 47.6912 63.7965 47.9079 64.0522 48.1612C64.6276 48.7397 65.0128 49.4801 65.1562 50.2835C65.2624 50.3383 65.3704 50.4063 65.4779 50.4732V22.736C65.4778 22.5664 65.4401 22.399 65.3673 22.2458C65.2946 22.0926 65.1887 21.9575 65.0573 21.8503L54.5573 13.2789C54.3533 13.1126 54.0982 13.0218 53.835 13.0217H21.8127C19.7379 13.0217 18.0493 14.8897 18.0493 17.1852V82.0023C18.0487 82.65 18.1883 83.2902 18.4584 83.8789H10.2087C10.0461 83.8576 9.88089 83.8713 9.72402 83.919C9.56715 83.9668 9.42226 84.0474 9.29904 84.1556C9.17581 84.2637 9.07708 84.3969 9.00945 84.5463C8.94182 84.6957 8.90683 84.8578 8.90683 85.0217C8.90683 85.1857 8.94182 85.3478 9.00945 85.4972C9.07708 85.6465 9.17581 85.7797 9.29904 85.8879C9.42226 85.9961 9.56715 86.0767 9.72402 86.1244C9.88089 86.1721 10.0461 86.1858 10.2087 86.1646H86.4607C86.6233 86.1858 86.7886 86.1721 86.9454 86.1244C87.1023 86.0767 87.2472 85.9961 87.3704 85.8879C87.4936 85.7797 87.5924 85.6465 87.66 85.4972C87.7276 85.3478 87.7626 85.1857 87.7626 85.0217C87.7626 84.8578 87.7276 84.6957 87.66 84.5463C87.5924 84.3969 87.4936 84.2637 87.3704 84.1556C87.2472 84.0474 87.1023 83.9668 86.9454 83.919C86.7886 83.8713 86.6239 83.8576 86.4613 83.8789ZM53.835 15.64L63.1922 23.2789V23.3074H53.835V15.64ZM61.1859 83.8789L61.6859 81.2983L64.5236 83.6194C64.551 83.6423 64.5796 83.6637 64.6093 83.6834C64.7187 83.7571 64.8335 83.8225 64.9527 83.8789H61.1859ZM70.3727 24.7892C70.7118 24.7892 71.0432 24.6886 71.3251 24.5003C71.607 24.3119 71.8268 24.0442 71.9565 23.7309C72.0863 23.4177 72.1202 23.073 72.0541 22.7404C71.9879 22.4079 71.8247 22.1024 71.5849 21.8627C71.3452 21.6229 71.0397 21.4597 70.7072 21.3935C70.3746 21.3274 70.0299 21.3613 69.7167 21.4911C69.4035 21.6208 69.1357 21.8406 68.9473 22.1225C68.759 22.4044 68.6584 22.7358 68.6584 23.0749C68.6589 23.5294 68.8396 23.9652 69.161 24.2866C69.4824 24.608 69.9182 24.7887 70.3727 24.7892ZM70.3727 22.2177C70.5423 22.2177 70.708 22.268 70.8489 22.3622C70.9899 22.4564 71.0997 22.5902 71.1646 22.7469C71.2295 22.9035 71.2465 23.0758 71.2134 23.2421C71.1803 23.4084 71.0987 23.5611 70.9788 23.681C70.8589 23.8008 70.7062 23.8825 70.5399 23.9156C70.3737 23.9486 70.2013 23.9317 70.0447 23.8668C69.8881 23.8019 69.7542 23.692 69.66 23.5511C69.5658 23.4101 69.5156 23.2444 69.5156 23.0749C69.5157 22.8476 69.6061 22.6297 69.7668 22.469C69.9275 22.3082 70.1454 22.2179 70.3727 22.2177ZM92.9064 26.3149C92.6804 26.3149 92.4594 26.3819 92.2715 26.5075C92.0836 26.6331 91.9371 26.8116 91.8506 27.0204C91.7641 27.2292 91.7414 27.459 91.7855 27.6807C91.8296 27.9024 91.9385 28.106 92.0983 28.2659C92.2581 28.4257 92.4618 28.5345 92.6835 28.5786C92.9052 28.6227 93.135 28.6001 93.3438 28.5136C93.5526 28.4271 93.7311 28.2806 93.8567 28.0927C93.9823 27.9047 94.0493 27.6838 94.0493 27.4577C94.049 27.1547 93.9285 26.8642 93.7142 26.6499C93.5 26.4357 93.2094 26.3152 92.9064 26.3149ZM92.9064 28.0292C92.7934 28.0292 92.6829 27.9957 92.589 27.9329C92.495 27.8701 92.4218 27.7808 92.3785 27.6764C92.3353 27.572 92.3239 27.4571 92.346 27.3463C92.368 27.2354 92.4225 27.1336 92.5024 27.0537C92.5823 26.9738 92.6841 26.9193 92.795 26.8973C92.9058 26.8752 93.0207 26.8866 93.1251 26.9298C93.2295 26.9731 93.3188 27.0463 93.3816 27.1403C93.4444 27.2342 93.4779 27.3447 93.4779 27.4577C93.4777 27.6092 93.4175 27.7545 93.3103 27.8616C93.2032 27.9688 93.0579 28.029 92.9064 28.0292ZM81.0967 43.8789C80.8707 43.8789 80.6497 43.9459 80.4618 44.0715C80.2738 44.1971 80.1274 44.3756 80.0409 44.5844C79.9544 44.7932 79.9317 45.023 79.9758 45.2447C80.0199 45.4664 80.1288 45.67 80.2886 45.8299C80.4484 45.9897 80.6521 46.0985 80.8738 46.1426C81.0955 46.1867 81.3252 46.1641 81.5341 46.0776C81.7429 45.9911 81.9214 45.8446 82.047 45.6567C82.1726 45.4687 82.2396 45.2478 82.2396 45.0217C82.2393 44.7187 82.1188 44.4282 81.9045 44.214C81.6902 43.9997 81.3997 43.8792 81.0967 43.8789ZM81.0967 45.5932C80.9837 45.5932 80.8732 45.5597 80.7793 45.4969C80.6853 45.4341 80.612 45.3448 80.5688 45.2404C80.5255 45.136 80.5142 45.0211 80.5363 44.9103C80.5583 44.7994 80.6127 44.6976 80.6927 44.6177C80.7726 44.5378 80.8744 44.4833 80.9852 44.4613C81.0961 44.4392 81.211 44.4506 81.3154 44.4938C81.4198 44.5371 81.5091 44.6103 81.5719 44.7043C81.6346 44.7982 81.6681 44.9087 81.6681 45.0217C81.668 45.1732 81.6077 45.3185 81.5006 45.4256C81.3935 45.5328 81.2482 45.593 81.0967 45.5932ZM71.5156 1.83545C71.2895 1.83545 71.0686 1.90248 70.8806 2.02806C70.6927 2.15363 70.5462 2.33212 70.4597 2.54095C70.3732 2.74978 70.3506 2.97957 70.3947 3.20127C70.4388 3.42296 70.5476 3.6266 70.7075 3.78643C70.8673 3.94626 71.0709 4.05511 71.2926 4.0992C71.5143 4.1433 71.7441 4.12067 71.9529 4.03417C72.1618 3.94767 72.3403 3.80119 72.4658 3.61324C72.5914 3.4253 72.6584 3.20434 72.6584 2.97831C72.6581 2.67529 72.5376 2.38478 72.3234 2.17052C72.1091 1.95626 71.8186 1.83575 71.5156 1.83545ZM71.5156 3.54974C71.4026 3.54974 71.2921 3.51622 71.1981 3.45343C71.1041 3.39064 71.0309 3.3014 70.9876 3.19698C70.9444 3.09257 70.9331 2.97767 70.9551 2.86683C70.9772 2.75598 71.0316 2.65416 71.1115 2.57425C71.1914 2.49433 71.2933 2.43991 71.4041 2.41786C71.5149 2.39581 71.6298 2.40713 71.7343 2.45038C71.8387 2.49363 71.9279 2.56687 71.9907 2.66084C72.0535 2.75481 72.087 2.86529 72.087 2.97831C72.0869 3.12981 72.0266 3.27507 71.9195 3.3822C71.8123 3.48933 71.6671 3.54958 71.5156 3.54974ZM22.0779 9.29716C22.0779 9.07113 22.0108 8.85017 21.8853 8.66223C21.7597 8.47428 21.5812 8.3278 21.3724 8.2413C21.1635 8.1548 20.9337 8.13217 20.7121 8.17627C20.4904 8.22036 20.2867 8.32921 20.1269 8.48904C19.9671 8.64887 19.8582 8.85251 19.8141 9.0742C19.77 9.2959 19.7926 9.52569 19.8791 9.73452C19.9656 9.94335 20.1121 10.1218 20.3001 10.2474C20.488 10.373 20.709 10.44 20.935 10.44C21.238 10.4397 21.5285 10.3192 21.7428 10.105C21.9571 9.89069 22.0776 9.60018 22.0779 9.29716ZM20.3636 9.29716C20.3636 9.18415 20.3971 9.07367 20.4599 8.9797C20.5227 8.88572 20.6119 8.81248 20.7163 8.76923C20.8208 8.72598 20.9356 8.71467 21.0465 8.73672C21.1573 8.75876 21.2592 8.81319 21.3391 8.8931C21.419 8.97302 21.4734 9.07484 21.4955 9.18568C21.5175 9.29653 21.5062 9.41143 21.4629 9.51584C21.4197 9.62025 21.3465 9.7095 21.2525 9.77229C21.1585 9.83508 21.048 9.86859 20.935 9.86859C20.7835 9.86844 20.6382 9.80819 20.5311 9.70106C20.424 9.59393 20.3637 9.44867 20.3636 9.29716Z" fill="#03275A"/>
<path d="M4.96988 28.8791L5.81903 27.7614L5.28246 27.4574L4.73731 28.7088H4.71903L4.16531 27.4665L3.61903 27.7791L4.46017 28.8699V28.8882L3.14531 28.7179V29.3259L4.46874 29.1562V29.1739L3.61903 30.2648L4.12874 30.5865L4.71046 29.3259H4.72817L5.26474 30.5779L5.82817 30.2557L4.96988 29.1831V29.1648L6.3196 29.3259V28.7179L4.96988 28.8968V28.8791ZM3.6116 3.96709L3.12246 4.59509L3.41617 4.78023L3.75103 4.05452H3.76131L4.06988 4.77509L4.39446 4.58994L3.90017 3.97166V3.96137L4.67731 4.05452V3.70423L3.90017 3.80709V3.7968L4.38931 3.15337L4.08074 2.97852L3.76646 3.69909H3.75617L3.43731 2.98309L3.12246 3.16366L3.60703 3.79166V3.80194L2.84988 3.70423V4.05452L3.6116 3.9568V3.96709ZM93.4945 10.1665V9.57052L92.1705 9.74537V9.72823L93.0036 8.63223L92.4773 8.33394L91.9425 9.56137H91.9247L91.3813 8.34252L90.8459 8.64937L91.6705 9.71966V9.7368L90.3813 9.57052V10.1665L91.679 10.0002V10.0174L90.8459 11.0871L91.3459 11.4031L91.9162 10.1665H91.9333L92.4596 11.3945L93.0122 11.0785L92.1705 10.0259V10.0088L93.4945 10.1665ZM42.1219 4.65909L42.8407 3.71394L42.3865 3.45623L41.9253 4.51509H41.9099L41.4413 3.46366L40.979 3.7288L41.6905 4.65166V4.66709L40.5779 4.52309V5.03737L41.6979 4.89394V4.9088L40.979 5.83166L41.4105 6.10423L41.9025 5.03737H41.9173L42.371 6.09623L42.8476 5.82423L42.1219 4.91623V4.90137L43.2636 5.03737V4.52309L42.1219 4.67452V4.65909Z" fill="#0C7FCF"/>
</g>
<defs>
<clipPath id="clip0_3540_2065">
<rect width="96" height="96" fill="white" transform="translate(0.335022)"/>
</clipPath>
</defs>
</svg>
