<svg width="96" height="96" viewBox="0 0 96 96" fill="none" xmlns="http://www.w3.org/2000/svg">
<g clip-path="url(#clip0_3540_2025)">
<path d="M67.5165 88.9064H62.7691C62.4813 88.9287 62.2125 89.0588 62.0164 89.2707C61.8203 89.4825 61.7114 89.7606 61.7114 90.0493C61.7114 90.3379 61.8203 90.616 62.0164 90.8278C62.2125 91.0397 62.4813 91.1698 62.7691 91.1921H67.5165C67.8043 91.1698 68.0731 91.0397 68.2692 90.8278C68.4653 90.616 68.5742 90.3379 68.5742 90.0493C68.5742 89.7606 68.4653 89.4825 68.2692 89.2707C68.0731 89.0588 67.8043 88.9287 67.5165 88.9064ZM33.2308 88.9064H28.4834C28.1956 88.9287 27.9268 89.0588 27.7307 89.2707C27.5346 89.4825 27.4257 89.7606 27.4257 90.0493C27.4257 90.3379 27.5346 90.616 27.7307 90.8278C27.9268 91.0397 28.1956 91.1698 28.4834 91.1921H33.2308C33.5186 91.1698 33.7874 91.0397 33.9835 90.8278C34.1796 90.616 34.2885 90.3379 34.2885 90.0493C34.2885 89.7606 34.1796 89.4825 33.9835 89.2707C33.7874 89.0588 33.5186 88.9287 33.2308 88.9064ZM59.4285 88.9064H36.5714C36.2683 88.9064 35.9776 89.0268 35.7633 89.2411C35.5489 89.4555 35.4285 89.7461 35.4285 90.0493C35.4285 90.3524 35.5489 90.643 35.7633 90.8574C35.9776 91.0717 36.2683 91.1921 36.5714 91.1921H45.68V92.335H41.1428C40.8397 92.335 40.549 92.4554 40.3347 92.6697C40.1204 92.884 40 93.1747 40 93.4778C40 93.7809 40.1204 94.0716 40.3347 94.2859C40.549 94.5003 40.8397 94.6207 41.1428 94.6207H55.4285C55.7316 94.6207 56.0223 94.5003 56.2366 94.2859C56.451 94.0716 56.5714 93.7809 56.5714 93.4778C56.5714 93.1747 56.451 92.884 56.2366 92.6697C56.0223 92.4554 55.7316 92.335 55.4285 92.335H50.32V91.1921H59.4285C59.7316 91.1921 60.0223 91.0717 60.2366 90.8574C60.451 90.643 60.5714 90.3524 60.5714 90.0493C60.5714 89.7461 60.451 89.4555 60.2366 89.2411C60.0223 89.0268 59.7316 88.9064 59.4285 88.9064ZM48 26.0492H77C77.3031 26.0492 77.5938 25.9288 77.8081 25.7145C78.0224 25.5002 78.1428 25.2095 78.1428 24.9064C78.1428 24.6033 78.0224 24.3126 77.8081 24.0983C77.5938 23.8839 77.3031 23.7635 77 23.7635H48C47.6968 23.7635 47.4062 23.8839 47.1918 24.0983C46.9775 24.3126 46.8571 24.6033 46.8571 24.9064C46.8571 25.2095 46.9775 25.5002 47.1918 25.7145C47.4062 25.9288 47.6968 26.0492 48 26.0492ZM78.1428 47.7635C78.1428 47.4604 78.0224 47.1697 77.8081 46.9554C77.5938 46.7411 77.3031 46.6207 77 46.6207H48C47.6968 46.6207 47.4062 46.7411 47.1918 46.9554C46.9775 47.1697 46.8571 47.4604 46.8571 47.7635C46.8571 48.0666 46.9775 48.3573 47.1918 48.5717C47.4062 48.786 47.6968 48.9064 48 48.9064H77C77.3031 48.9064 77.5938 48.786 77.8081 48.5717C78.0224 48.3573 78.1428 48.0666 78.1428 47.7635ZM40.5714 27.7635C40.5714 26.2943 40.1357 24.8581 39.3194 23.6364C38.5032 22.4148 37.343 21.4627 35.9856 20.9004C34.6282 20.3382 33.1346 20.1911 31.6936 20.4777C30.2526 20.7643 28.9289 21.4718 27.89 22.5107C26.8511 23.5496 26.1436 24.8733 25.857 26.3143C25.5703 27.7553 25.7175 29.2489 26.2797 30.6063C26.842 31.9637 27.7941 33.1239 29.0157 33.9402C30.2373 34.7564 31.6736 35.1921 33.1428 35.1921C35.1123 35.1898 37.0005 34.4065 38.3931 33.0138C39.7857 31.6212 40.5691 29.733 40.5714 27.7635ZM28 27.7635C28 26.7464 28.3016 25.7521 28.8667 24.9063C29.4318 24.0606 30.235 23.4014 31.1747 23.0122C32.1145 22.6229 33.1485 22.5211 34.1461 22.7195C35.1437 22.9179 36.0601 23.4077 36.7794 24.127C37.4986 24.8462 37.9884 25.7626 38.1868 26.7602C38.3853 27.7578 38.2834 28.7919 37.8942 29.7316C37.5049 30.6714 36.8458 31.4746 36 32.0397C35.1543 32.6048 34.16 32.9064 33.1428 32.9064C31.7793 32.9049 30.4721 32.3626 29.5079 31.3984C28.5438 30.4343 28.0015 29.127 28 27.7635Z" fill="#0C7FCF"/>
<path d="M77 40.9062H62.2737C61.6848 41.6212 60.945 42.1969 60.1073 42.5921C59.2696 42.9873 58.3548 43.1922 57.4285 43.192H77C77.3031 43.192 77.5938 43.0716 77.8081 42.8572C78.0224 42.6429 78.1428 42.3522 78.1428 42.0491C78.1428 41.746 78.0224 41.4553 77.8081 41.241C77.5938 41.0267 77.3031 40.9062 77 40.9062Z" fill="#03275A"/>
<path d="M77.0001 35.1919H63.4709C63.6312 35.7493 63.7131 36.3262 63.7144 36.9062C63.7144 37.0993 63.7029 37.289 63.6858 37.4776H77.0001C77.3032 37.4776 77.5939 37.3572 77.8082 37.1429C78.0225 36.9285 78.1429 36.6379 78.1429 36.3348C78.1429 36.0316 78.0225 35.741 77.8082 35.5266C77.5939 35.3123 77.3032 35.1919 77.0001 35.1919Z" fill="#0C7FCF"/>
<path d="M57.4285 30.6204C58.7187 30.6201 59.9773 31.0193 61.0313 31.7633H76.9999C77.303 31.7633 77.5937 31.6428 77.808 31.4285C78.0224 31.2142 78.1428 30.9235 78.1428 30.6204C78.1428 30.3173 78.0224 30.0266 77.808 29.8123C77.5937 29.5979 77.303 29.4775 76.9999 29.4775H47.9999C47.6968 29.4775 47.4061 29.5979 47.1918 29.8123C46.9775 30.0266 46.8571 30.3173 46.8571 30.6204H57.4285Z" fill="#03275A"/>
<path d="M16 59.7634H17.4371C16.926 59.0881 16.5723 58.3072 16.4017 57.4777H16C15.3937 57.4777 14.8124 57.2369 14.3837 56.8082C13.9551 56.3796 13.7142 55.7982 13.7142 55.192V17.4777C13.7142 16.8715 13.9551 16.2901 14.3837 15.8614C14.8124 15.4328 15.3937 15.192 16 15.192H80C80.6062 15.192 81.1875 15.4328 81.6162 15.8614C82.0449 16.2901 82.2857 16.8715 82.2857 17.4777V55.192C82.2857 55.7982 82.0449 56.3796 81.6162 56.8082C81.1875 57.2369 80.6062 57.4777 80 57.4777H74.7714C75.9241 58.0518 76.9659 58.8257 77.8485 59.7634H80C81.212 59.762 82.3739 59.28 83.2309 58.423C84.088 57.5659 84.57 56.404 84.5714 55.192V17.4777C84.57 16.2657 84.088 15.1037 83.2309 14.2467C82.3739 13.3897 81.212 12.9076 80 12.9062H16C14.788 12.9076 13.626 13.3897 12.769 14.2467C11.912 15.1037 11.4299 16.2657 11.4285 17.4777V55.192C11.43 56.4039 11.9122 57.5658 12.7691 58.4228C13.6261 59.2798 14.788 59.7619 16 59.7634Z" fill="#03275A"/>
<path d="M65.1325 57.4777H44.5714V59.7634H62.0559C62.9384 58.8257 63.98 58.0519 65.1325 57.4777ZM30.0559 59.7634C30.9384 58.8257 31.98 58.0519 33.1325 57.4777H28.5714V59.7634H30.0559ZM57.4285 38.6205H41.1428C40.8397 38.6205 40.549 38.7409 40.3347 38.9553C40.1203 39.1696 39.9999 39.4603 39.9999 39.7634V56.5348C40.7858 56.6853 41.5525 56.9229 42.2856 57.2434V40.9062H57.4285C58.4894 40.9062 59.5068 40.4848 60.2569 39.7347C61.0071 38.9845 61.4285 37.9671 61.4285 36.9062C61.4285 35.8454 61.0071 34.828 60.2569 34.0778C59.5068 33.3277 58.4894 32.9062 57.4285 32.9062H41.3691C40.8317 33.7662 40.1639 34.5373 39.3896 35.192H57.4285C57.8832 35.192 58.3192 35.3726 58.6407 35.6941C58.9622 36.0156 59.1428 36.4516 59.1428 36.9062C59.1428 37.3609 58.9622 37.7969 58.6407 38.1184C58.3192 38.4399 57.8832 38.6205 57.4285 38.6205ZM23.1428 35.192H26.8959C26.1216 34.5373 25.4538 33.7662 24.9165 32.9062H23.1428C21.9308 32.9078 20.7689 33.3899 19.912 34.2469C19.055 35.1038 18.5729 36.2657 18.5714 37.4777V56.3348C18.5724 57.2438 18.934 58.1153 19.5767 58.758C20.2195 59.4008 21.0909 59.7623 21.9999 59.7634H23.9999V72.0982C24.706 71.6907 25.4806 71.4157 26.2856 71.2868V48.9057C26.2856 48.6026 26.1652 48.3119 25.9509 48.0976C25.7366 47.8832 25.4459 47.7628 25.1428 47.7628C24.8397 47.7628 24.549 47.8832 24.3347 48.0976C24.1203 48.3119 23.9999 48.6026 23.9999 48.9057V57.4771H21.9999C21.6969 57.4768 21.4064 57.3563 21.1921 57.142C20.9779 56.9278 20.8574 56.6373 20.8571 56.3342V37.4771C20.8577 36.8711 21.0987 36.2901 21.5272 35.8615C21.9557 35.433 22.5368 35.1926 23.1428 35.192Z" fill="#03275A"/>
<path d="M1.1428 86.6207C1.77398 86.6207 2.28565 86.109 2.28565 85.4778C2.28565 84.8466 1.77398 84.335 1.1428 84.335C0.511613 84.335 -6.10352e-05 84.8466 -6.10352e-05 85.4778C-6.10352e-05 86.109 0.511613 86.6207 1.1428 86.6207Z" fill="#03275A"/>
<path d="M6.28567 84.335H4.57139C4.26828 84.335 3.97759 84.4554 3.76326 84.6697C3.54894 84.884 3.42853 85.1747 3.42853 85.4778C3.42853 85.7809 3.54894 86.0716 3.76326 86.2859C3.97759 86.5003 4.26828 86.6207 4.57139 86.6207H6.28567C6.58878 86.6207 6.87947 86.5003 7.09379 86.2859C7.30812 86.0716 7.42853 85.7809 7.42853 85.4778C7.42853 85.1747 7.30812 84.884 7.09379 84.6697C6.87947 84.4554 6.58878 84.335 6.28567 84.335ZM91.4285 84.335H89.7142C89.4111 84.335 89.1205 84.4554 88.9061 84.6697C88.6918 84.884 88.5714 85.1747 88.5714 85.4778C88.5714 85.7809 88.6918 86.0716 88.9061 86.2859C89.1205 86.5003 89.4111 86.6207 89.7142 86.6207H91.4285C91.7316 86.6207 92.0223 86.5003 92.2367 86.2859C92.451 86.0716 92.5714 85.7809 92.5714 85.4778C92.5714 85.1747 92.451 84.884 92.2367 84.6697C92.0223 84.4554 91.7316 84.335 91.4285 84.335Z" fill="#03275A"/>
<path d="M94.8571 86.6207C95.4883 86.6207 95.9999 86.109 95.9999 85.4778C95.9999 84.8466 95.4883 84.335 94.8571 84.335C94.2259 84.335 93.7142 84.8466 93.7142 85.4778C93.7142 86.109 94.2259 86.6207 94.8571 86.6207Z" fill="#03275A"/>
<path d="M86.1255 84.3347H84.5713V78.049C84.5793 76.8459 84.1097 75.6889 83.2655 74.8318C82.4212 73.9747 81.2714 73.4877 80.0684 73.4775H59.3598C58.1568 73.4877 57.007 73.9747 56.1628 74.8318C55.3185 75.6889 54.8489 76.8459 54.857 78.049V84.3347H52.5712V78.049C52.5793 76.8459 52.1097 75.6889 51.2655 74.8318C50.4212 73.9747 49.2714 73.4877 48.0684 73.4775H27.3598C26.1568 73.4877 25.007 73.9747 24.1628 74.8318C23.3185 75.6889 22.8489 76.8459 22.857 78.049V84.3347H9.8741C9.71152 84.3134 9.54627 84.3271 9.3894 84.3748C9.23252 84.4225 9.08764 84.5032 8.96441 84.6114C8.84119 84.7195 8.74246 84.8527 8.67482 85.0021C8.60719 85.1515 8.5722 85.3136 8.5722 85.4775C8.5722 85.6415 8.60719 85.8036 8.67482 85.953C8.74246 86.1023 8.84119 86.2355 8.96441 86.3437C9.08764 86.4519 9.23252 86.5325 9.3894 86.5802C9.54627 86.6279 9.71152 86.6416 9.8741 86.6204H86.1255C86.2881 86.6416 86.4534 86.6279 86.6102 86.5802C86.7671 86.5325 86.912 86.4519 87.0352 86.3437C87.1585 86.2355 87.2572 86.1023 87.3248 85.953C87.3924 85.8036 87.4274 85.6415 87.4274 85.4775C87.4274 85.3136 87.3924 85.1515 87.3248 85.0021C87.2572 84.8527 87.1585 84.7195 87.0352 84.6114C86.912 84.5032 86.7671 84.4225 86.6102 84.3748C86.4534 84.3271 86.2881 84.3134 86.1255 84.3347ZM50.2855 84.3347H25.1427V78.049C25.134 77.452 25.3626 76.8759 25.7783 76.4473C26.194 76.0188 26.7628 75.7727 27.3598 75.7633H48.0684C48.6654 75.7727 49.2342 76.0188 49.6499 76.4473C50.0656 76.8759 50.2942 77.452 50.2855 78.049V84.3347ZM82.2855 84.3347H57.1427V78.049C57.134 77.452 57.3626 76.8759 57.7783 76.4473C58.194 76.0188 58.7628 75.7727 59.3598 75.7633H80.0684C80.6654 75.7727 81.2342 76.0188 81.6499 76.4473C82.0656 76.8759 82.2942 77.452 82.2855 78.049V84.3347Z" fill="#03275A"/>
<path d="M78.5257 67.1918C78.5255 68.374 78.2795 69.5433 77.8034 70.6253C77.3273 71.7074 76.6314 72.6787 75.76 73.4776H69.9543C71.1975 73.4776 72.4127 73.1089 73.4464 72.4182C74.4801 71.7275 75.2857 70.7458 75.7615 69.5973C76.2372 68.4487 76.3617 67.1849 76.1192 65.9656C75.8767 64.7462 75.278 63.6262 74.3989 62.7472C73.5199 61.8681 72.3998 61.2694 71.1805 61.0269C69.9612 60.7844 68.6974 60.9088 67.5488 61.3846C66.4003 61.8603 65.4186 62.666 64.7279 63.6997C64.0372 64.7334 63.6685 65.9486 63.6685 67.1918C63.6705 68.8583 64.3334 70.456 65.5118 71.6343C66.6901 72.8127 68.2878 73.4756 69.9543 73.4776H64.1428C63.0979 72.5114 62.3101 71.3 61.8506 69.953C61.3912 68.606 61.2746 67.1658 61.5113 65.7624C61.7481 64.359 62.3307 63.0368 63.2066 61.915C64.0825 60.7933 65.2241 59.9074 66.5282 59.3375C67.8323 58.7676 69.2578 58.5315 70.676 58.6507C72.0942 58.7698 73.4604 59.2404 74.6511 60.0199C75.8419 60.7995 76.8196 61.8634 77.4961 63.1155C78.1726 64.3677 78.5264 65.7686 78.5257 67.1918ZM46.5257 67.1918C46.5255 68.374 46.2795 69.5433 45.8034 70.6253C45.3273 71.7074 44.6314 72.6787 43.76 73.4776H37.9543C39.1975 73.4776 40.4127 73.1089 41.4464 72.4182C42.4801 71.7275 43.2857 70.7458 43.7615 69.5973C44.2372 68.4487 44.3617 67.1849 44.1192 65.9656C43.8767 64.7462 43.278 63.6262 42.3989 62.7472C41.5199 61.8681 40.3998 61.2694 39.1805 61.0269C37.9612 60.7844 36.6974 60.9088 35.5488 61.3846C34.4003 61.8603 33.4186 62.666 32.7279 63.6997C32.0372 64.7334 31.6685 65.9486 31.6685 67.1918C31.6705 68.8583 32.3334 70.456 33.5118 71.6343C34.6901 72.8127 36.2878 73.4756 37.9543 73.4776H32.1428C31.0979 72.5114 30.3101 71.3 29.8506 69.953C29.3912 68.606 29.2746 67.1658 29.5113 65.7624C29.7481 64.359 30.3307 63.0368 31.2066 61.915C32.0825 60.7933 33.2241 59.9074 34.5282 59.3375C35.8323 58.7676 37.2578 58.5315 38.676 58.6507C40.0942 58.7698 41.4604 59.2404 42.6511 60.0199C43.8419 60.7995 44.8196 61.8634 45.4961 63.1155C46.1726 64.3677 46.5264 65.7686 46.5257 67.1918Z" fill="#0C7FCF"/>
<path d="M92.5713 5.19082C92.9103 5.19082 93.2418 5.09028 93.5237 4.90191C93.8056 4.71355 94.0253 4.44581 94.1551 4.13257C94.2848 3.81932 94.3188 3.47464 94.2526 3.1421C94.1865 2.80956 94.0232 2.5041 93.7835 2.26435C93.5437 2.02461 93.2383 1.86134 92.9057 1.79519C92.5732 1.72905 92.2285 1.76299 91.9153 1.89274C91.602 2.02249 91.3343 2.24222 91.1459 2.52413C90.9575 2.80604 90.857 3.13748 90.857 3.47654C90.8575 3.93105 91.0382 4.36683 91.3596 4.68822C91.681 5.00961 92.1168 5.19037 92.5713 5.19082ZM92.5713 2.61939C92.7408 2.61939 92.9065 2.66967 93.0475 2.76385C93.1885 2.85803 93.2983 2.9919 93.3632 3.14852C93.4281 3.30515 93.445 3.47749 93.412 3.64376C93.3789 3.81003 93.2973 3.96276 93.1774 4.08263C93.0575 4.2025 92.9048 4.28414 92.7385 4.31721C92.5722 4.35028 92.3999 4.33331 92.2433 4.26843C92.0867 4.20356 91.9528 4.0937 91.8586 3.95274C91.7644 3.81178 91.7141 3.64606 91.7141 3.47654C91.7143 3.24926 91.8047 3.03133 91.9654 2.87061C92.1261 2.7099 92.344 2.61955 92.5713 2.61939ZM93.4284 26.6194C93.2024 26.6194 92.9814 26.6864 92.7935 26.812C92.6056 26.9376 92.4591 27.1161 92.3726 27.3249C92.2861 27.5337 92.2634 27.7635 92.3075 27.9852C92.3516 28.2069 92.4605 28.4105 92.6203 28.5704C92.7801 28.7302 92.9838 28.839 93.2055 28.8831C93.4272 28.9272 93.657 28.9046 93.8658 28.8181C94.0746 28.7316 94.2531 28.5851 94.3787 28.3972C94.5043 28.2092 94.5713 27.9883 94.5713 27.7622C94.571 27.4592 94.4505 27.1687 94.2362 26.9545C94.022 26.7402 93.7314 26.6197 93.4284 26.6194ZM93.4284 28.3337C93.3154 28.3337 93.2049 28.3002 93.111 28.2374C93.017 28.1746 92.9438 28.0853 92.9005 27.9809C92.8573 27.8765 92.8459 27.7616 92.868 27.6508C92.89 27.5399 92.9445 27.4381 93.0244 27.3582C93.1043 27.2783 93.2061 27.2238 93.317 27.2018C93.4278 27.1798 93.5427 27.1911 93.6471 27.2343C93.7515 27.2776 93.8408 27.3508 93.9036 27.4448C93.9663 27.5388 93.9999 27.6492 93.9999 27.7622C93.9997 27.9138 93.9395 28.059 93.8323 28.1661C93.7252 28.2733 93.5799 28.3335 93.4284 28.3337ZM4.39701 1.37939C4.17097 1.37939 3.95001 1.44642 3.76207 1.572C3.57413 1.69758 3.42765 1.87607 3.34115 2.0849C3.25465 2.29373 3.23201 2.52352 3.27611 2.74521C3.32021 2.9669 3.42905 3.17054 3.58889 3.33037C3.74872 3.49021 3.95236 3.59905 4.17405 3.64315C4.39574 3.68725 4.62553 3.66461 4.83436 3.57811C5.04319 3.49161 5.22168 3.34513 5.34726 3.15719C5.47284 2.96925 5.53986 2.74829 5.53986 2.52225C5.53956 2.21924 5.41906 1.92873 5.2048 1.71446C4.99053 1.5002 4.70002 1.3797 4.39701 1.37939ZM4.39701 3.09368C4.28399 3.09368 4.17351 3.06017 4.07954 2.99738C3.98557 2.93459 3.91233 2.84534 3.86908 2.74093C3.82583 2.63651 3.81451 2.52162 3.83656 2.41077C3.85861 2.29993 3.91303 2.19811 3.99295 2.11819C4.07286 2.03827 4.17468 1.98385 4.28553 1.9618C4.39637 1.93975 4.51127 1.95107 4.61568 1.99432C4.7201 2.03757 4.80934 2.11081 4.87213 2.20478C4.93492 2.29875 4.96844 2.40923 4.96844 2.52225C4.96829 2.67376 4.90803 2.81901 4.8009 2.92615C4.69377 3.03328 4.54851 3.09353 4.39701 3.09368ZM73.7141 5.47654C73.4881 5.47654 73.2672 5.54356 73.0792 5.66914C72.8913 5.79472 72.7448 5.97321 72.6583 6.18204C72.5718 6.39087 72.5491 6.62066 72.5932 6.84235C72.6373 7.06405 72.7462 7.26768 72.906 7.42752C73.0659 7.58735 73.2695 7.69619 73.4912 7.74029C73.7129 7.78439 73.9427 7.76176 74.1515 7.67526C74.3603 7.58876 74.5388 7.44227 74.6644 7.25433C74.79 7.06639 74.857 6.84543 74.857 6.61939C74.8567 6.31638 74.7362 6.02587 74.5219 5.81161C74.3077 5.59734 74.0172 5.47684 73.7141 5.47654ZM73.7141 7.19082C73.6011 7.19082 73.4906 7.15731 73.3967 7.09452C73.3027 7.03173 73.2295 6.94249 73.1862 6.83807C73.143 6.73366 73.1316 6.61876 73.1537 6.50791C73.1757 6.39707 73.2302 6.29525 73.3101 6.21533C73.39 6.13542 73.4918 6.08099 73.6027 6.05895C73.7135 6.0369 73.8284 6.04821 73.9328 6.09146C74.0372 6.13471 74.1265 6.20795 74.1893 6.30193C74.2521 6.3959 74.2856 6.50638 74.2856 6.61939C74.2854 6.7709 74.2252 6.91616 74.118 7.02329C74.0109 7.13042 73.8657 7.19067 73.7141 7.19082ZM19.7141 8.33368C19.7141 8.10764 19.6471 7.88668 19.5215 7.69874C19.396 7.5108 19.2175 7.36432 19.0086 7.27782C18.7998 7.19132 18.57 7.16868 18.3483 7.21278C18.1266 7.25688 17.923 7.36573 17.7632 7.52556C17.6033 7.68539 17.4945 7.88903 17.4504 8.11072C17.4063 8.33241 17.4289 8.5622 17.5154 8.77103C17.6019 8.97986 17.7484 9.15835 17.9364 9.28393C18.1243 9.40951 18.3453 9.47654 18.5713 9.47654C18.8743 9.47623 19.1648 9.35573 19.3791 9.14147C19.5933 8.92721 19.7138 8.63669 19.7141 8.33368ZM17.9999 8.33368C17.9999 8.22066 18.0334 8.11018 18.0962 8.01621C18.159 7.92224 18.2482 7.849 18.3526 7.80575C18.457 7.7625 18.5719 7.75118 18.6828 7.77323C18.7936 7.79528 18.8954 7.8497 18.9754 7.92962C19.0553 8.00953 19.1097 8.11135 19.1317 8.2222C19.1538 8.33305 19.1425 8.44794 19.0992 8.55236C19.056 8.65677 18.9827 8.74602 18.8888 8.80881C18.7948 8.87159 18.6843 8.90511 18.5713 8.90511C18.4198 8.90496 18.2745 8.8447 18.1674 8.73757C18.0603 8.63044 18 8.48519 17.9999 8.33368Z" fill="#03275A"/>
<path d="M3.49193 21.5307L4.34107 20.413L3.8045 20.109L3.25936 21.3604H3.24107L2.68736 20.1176L2.14107 20.4307L2.98222 21.5216V21.5393L1.66736 21.3696V21.9776L2.99079 21.8079V21.8256L2.14107 22.9164L2.65079 23.2381L3.2325 21.9776H3.25022L3.78679 23.229L4.35022 22.9073L3.49193 21.8341V21.8164L4.84164 21.9776V21.3696L3.49193 21.5484V21.5307ZM54.7005 8.42043L54.2108 9.04843L54.5045 9.23357L54.8394 8.50785H54.8496L55.1582 9.22843L55.4828 9.04328L54.9885 8.425V8.41471L55.7656 8.50785V8.15757L54.9885 8.26043V8.25014L55.4776 7.60671L55.1691 7.43186L54.8548 8.15243H54.8445L54.5256 7.43643L54.2108 7.617L54.6954 8.245V8.25528L53.9382 8.15757V8.50785L54.7005 8.41014V8.42043ZM90.1279 16.4353V15.8393L88.8039 16.0147V15.997L89.6376 14.901L89.1114 14.6027L88.5765 15.8301H88.5582L88.0154 14.6113L87.4794 14.9181L88.3045 15.9884V16.0061L87.0148 15.8393V16.4353L88.3131 16.269V16.2867L87.4794 17.3564L87.9794 17.6719L88.5502 16.4353H88.5668L89.0931 17.6633L89.6462 17.3479L88.8039 16.2953V16.2776L90.1279 16.4353ZM35.6291 3.35414L36.3479 2.409L35.8942 2.15186L35.4331 3.21071H35.4176L34.9485 2.15928L34.4868 2.42386L35.1982 3.34671V3.36214L34.0856 3.21814V3.73243L35.2056 3.589V3.60386L34.4868 4.52671L34.9176 4.79928L35.4102 3.73243H35.4251L35.8788 4.79186L36.3554 4.51928L35.6291 3.61128V3.59643L36.7714 3.73243V3.21814L35.6291 3.36957V3.35414Z" fill="#0C7FCF"/>
</g>
<defs>
<clipPath id="clip0_3540_2025">
<rect width="96" height="96" fill="white"/>
</clipPath>
</defs>
</svg>
